<?xml version="1.0" encoding="UTF-8" standalone="no"?>
<svg
   xmlns:dc="http://purl.org/dc/elements/1.1/"
   xmlns:cc="http://creativecommons.org/ns#"
   xmlns:rdf="http://www.w3.org/1999/02/22-rdf-syntax-ns#"
   xmlns:svg="http://www.w3.org/2000/svg"
   xmlns="http://www.w3.org/2000/svg"
   xmlns:xlink="http://www.w3.org/1999/xlink"
   xmlns:sodipodi="http://sodipodi.sourceforge.net/DTD/sodipodi-0.dtd"
   xmlns:inkscape="http://www.inkscape.org/namespaces/inkscape"
   width="300"
   height="300"
   viewBox="0 0 79.374999 79.375003"
   version="1.1"
   id="svg8"
   inkscape:version="1.0.2 (e86c870879, 2021-01-15, custom)"
   sodipodi:docname="nn_link.svg">
  <defs
     id="defs2">
    <linearGradient
       inkscape:collect="always"
       id="linearGradient1501">
      <stop
         style="stop-color:#000000;stop-opacity:1;"
         offset="0"
         id="stop1497" />
      <stop
         style="stop-color:#000000;stop-opacity:0;"
         offset="1"
         id="stop1499" />
    </linearGradient>
    <rect
       x="71.529885"
       y="98.84117"
       width="52.785732"
       height="13.898016"
       id="rect1489" />
    <inkscape:path-effect
       effect="mirror_symmetry"
       start_point="-3.4314293,35.892398"
       end_point="-3.4314293,77.051908"
       center_point="-3.4314293,56.472153"
       id="path-effect897"
       is_visible="true"
       lpeversion="1"
       mode="free"
       discard_orig_path="false"
       fuse_paths="false"
       oposite_fuse="false"
       split_items="true" />
    <radialGradient
       inkscape:collect="always"
       xlink:href="#linearGradient1501"
       id="radialGradient1503"
       cx="95.369279"
       cy="65.641883"
       fx="95.369279"
       fy="65.641883"
       r="6.8884463"
       gradientTransform="matrix(1,0,0,0.73191377,0,17.597685)"
       gradientUnits="userSpaceOnUse" />
  </defs>
  <sodipodi:namedview
     id="base"
     pagecolor="#283746"
     bordercolor="#666666"
     borderopacity="1.0"
     inkscape:pageopacity="0"
     inkscape:pageshadow="2"
     inkscape:zoom="1.4"
     inkscape:cx="132.528"
     inkscape:cy="205.93601"
     inkscape:document-units="px"
     inkscape:current-layer="layer1"
     inkscape:document-rotation="0"
     showgrid="false"
     units="px"
     inkscape:window-width="1566"
     inkscape:window-height="1033"
     inkscape:window-x="224"
     inkscape:window-y="0"
     inkscape:window-maximized="0"
     inkscape:snap-center="true"
     fit-margin-top="0"
     fit-margin-left="0"
     fit-margin-right="0"
     fit-margin-bottom="0"
     inkscape:snap-global="false" />
  <metadata
     id="metadata5">
    <rdf:RDF>
      <cc:Work
         rdf:about="">
        <dc:format>image/svg+xml</dc:format>
        <dc:type
           rdf:resource="http://purl.org/dc/dcmitype/StillImage" />
        <dc:title></dc:title>
      </cc:Work>
    </rdf:RDF>
  </metadata>
  <g
     inkscape:label="Layer 1"
     inkscape:groupmode="layer"
     id="layer1"
     transform="translate(-56.696426,-53.672619)">
    <path
       sodipodi:type="star"
       style="opacity:0.9994;fill:#ff2a2a;fill-opacity:1;fill-rule:evenodd;stroke:none;stroke-width:0.264999;stroke-linejoin:round;stroke-miterlimit:4;stroke-dasharray:none;stroke-opacity:1;paint-order:markers fill stroke;stop-color:#000000"
       id="path1178"
       sodipodi:sides="12"
       sodipodi:cx="100.54167"
       sodipodi:cy="93.171135"
       sodipodi:r1="53.254757"
       sodipodi:r2="38.503189"
       sodipodi:arg1="0.59095535"
       sodipodi:arg2="0.85275474"
       inkscape:flatsided="false"
       inkscape:rounded="0.97"
       inkscape:randomized="0"
       d="m 144.76489,122.84227 c -10.21625,15.22677 -5.08242,-12.73832 -18.89154,-0.67455 -13.80912,12.06377 14.5921,10.73234 -1.86881,18.81098 -16.46092,8.07864 1.96765,-13.57292 -16.02329,-10.02995 -17.99093,3.54297 7.27097,16.59053 -11.023925,15.35638 -18.294895,-1.23415 8.490495,-10.77067 -8.861594,-16.69783 -17.352091,-5.92716 -1.998423,18.0033 -17.225192,7.78705 -15.226771,-10.21625 12.738319,-5.08242 0.674549,-18.89154 -12.06377,-13.80912 -10.732336,14.59211 -18.81098,-1.86881 -8.078644,-16.46092 13.57292,1.96765 10.029949,-16.02328 -3.542972,-17.990937 -16.59053,7.27096 -15.356382,-11.023931 1.234149,-18.294896 10.770668,8.490496 16.697832,-8.861595 5.927163,-17.352091 -18.003305,-1.998422 -7.787053,-17.225192 10.216252,-15.22677 5.082424,12.738319 18.891544,0.674549 13.809119,-12.06377 -14.592108,-10.732336 1.86881,-18.81098 16.460919,-8.078644 -1.967651,13.57292 16.023282,10.029949 17.99093,-3.542972 -7.270967,-16.59053 11.02393,-15.356382 18.29489,1.234149 -8.490498,10.770669 8.86159,16.697832 17.35209,5.927163 1.99843,-18.003304 17.22519,-7.787053 15.22678,10.216252 -12.73831,5.082424 -0.67454,18.891544 12.06377,13.809119 10.73233,-14.592108 18.81098,1.868811 8.07864,16.460918 -13.57292,-1.967652 -10.02995,16.023282 3.54297,17.990936 16.59053,-7.270968 15.35638,11.023927 -1.23415,18.294899 -10.77067,-8.490496 -16.69783,8.861599 -5.92717,17.35209 18.0033,1.99842 7.78705,17.22519 z"
       transform="matrix(0.1281463,0,0,0.13702465,68.475337,88.908864)" />
    <path
       id="rect1182"
       style="opacity:0.9994;fill:#ff2a2a;fill-opacity:1;fill-rule:evenodd;stroke:#000000;stroke-width:1.00157;stroke-linejoin:round;stroke-miterlimit:4;stroke-dasharray:none;stroke-opacity:1;paint-order:markers fill stroke;stop-color:#000000"
       d="M 7.5664062 75.923828 C 4.5985491 75.923828 2.2089844 78.313393 2.2089844 81.28125 L 2.2089844 146.28125 C 2.2089844 149.24911 4.5985491 151.63867 7.5664062 151.63867 C 7.6086387 151.63867 7.6494133 151.63377 7.6914062 151.63281 C 8.124535 151.73023 8.5737247 151.78516 9.0371094 151.78516 L 41.851562 151.78516 C 42.303316 151.89513 42.774045 151.96032 43.261719 151.96289 C 44.59255 151.96991 45.825453 151.54737 46.837891 150.83203 C 48.525196 149.7558 49.642578 147.87285 49.642578 145.71484 C 49.642578 145.24168 49.583882 144.7833 49.482422 144.3418 L 49.833984 126.28125 C 49.899497 122.91844 47.244258 120.19744 43.880859 120.17969 C 40.517461 120.16194 37.756919 122.85594 37.691406 126.21875 L 37.429688 139.64258 L 12.921875 139.64258 L 12.921875 88.214844 L 43.392578 88.214844 C 46.75615 88.214844 49.464844 85.50615 49.464844 82.142578 C 49.464844 78.779006 46.75615 76.072266 43.392578 76.072266 L 8.8066406 76.072266 C 8.4080342 75.978265 7.9945266 75.923828 7.5664062 75.923828 z "
       transform="matrix(0.26458334,0,0,0.26458334,56.696426,53.672619)" />
    <rect
       style="opacity:0.9994;fill:#ff2a2a;fill-opacity:1;fill-rule:evenodd;stroke:#000000;stroke-width:0.234701;stroke-linejoin:round;stroke-miterlimit:4;stroke-dasharray:none;stroke-opacity:1;paint-order:markers fill stroke;stop-color:#000000"
       id="rect1184-1-4"
       width="16.158482"
       height="3.2127979"
       x="79.397346"
       y="-74.426743"
       ry="1.6063989"
       transform="rotate(88.916603)" />
    <rect
       style="opacity:0.9994;fill:#ff2a2a;fill-opacity:1;fill-rule:evenodd;stroke:#000000;stroke-width:0.0999304;stroke-linejoin:round;stroke-miterlimit:4;stroke-dasharray:none;stroke-opacity:1;paint-order:markers fill stroke;stop-color:#000000"
       id="rect1184-1-2"
       width="2.9293149"
       height="3.2127979"
       x="72.713165"
       y="73.421875"
       ry="1.6063989" />
    <path
       sodipodi:type="star"
       style="opacity:0.9994;fill:#ff8080;fill-opacity:1;fill-rule:evenodd;stroke:none;stroke-width:0.264999;stroke-linejoin:round;stroke-miterlimit:4;stroke-dasharray:none;stroke-opacity:1;paint-order:markers fill stroke;stop-color:#000000"
       id="path1178-6-2-0"
       sodipodi:sides="12"
       sodipodi:cx="100.54167"
       sodipodi:cy="93.171135"
       sodipodi:r1="53.254757"
       sodipodi:r2="38.503189"
       sodipodi:arg1="0.59095535"
       sodipodi:arg2="0.85275474"
       inkscape:flatsided="false"
       inkscape:rounded="0.97"
       inkscape:randomized="0"
       transform="matrix(0.11320543,0,0,0.12437954,70.55708,65.04886)"
       d="m 144.76489,122.84227 c -10.21625,15.22677 -5.08242,-12.73832 -18.89154,-0.67455 -13.80912,12.06377 14.5921,10.73234 -1.86881,18.81098 -16.46092,8.07864 1.96765,-13.57292 -16.02329,-10.02995 -17.99093,3.54297 7.27097,16.59053 -11.023925,15.35638 -18.294895,-1.23415 8.490495,-10.77067 -8.861594,-16.69783 -17.352091,-5.92716 -1.998423,18.0033 -17.225192,7.78705 -15.226771,-10.21625 12.738319,-5.08242 0.674549,-18.89154 -12.06377,-13.80912 -10.732336,14.59211 -18.81098,-1.86881 -8.078644,-16.46092 13.57292,1.96765 10.029949,-16.02328 -3.542972,-17.990937 -16.59053,7.27096 -15.356382,-11.023931 1.234149,-18.294896 10.770668,8.490496 16.697832,-8.861595 5.927163,-17.352091 -18.003305,-1.998422 -7.787053,-17.225192 10.216252,-15.22677 5.082424,12.738319 18.891544,0.674549 13.809119,-12.06377 -14.592108,-10.732336 1.86881,-18.81098 16.460919,-8.078644 -1.967651,13.57292 16.023282,10.029949 17.99093,-3.542972 -7.270967,-16.59053 11.02393,-15.356382 18.29489,1.234149 -8.490498,10.770669 8.86159,16.697832 17.35209,5.927163 1.99843,-18.003304 17.22519,-7.787053 15.22678,10.216252 -12.73831,5.082424 -0.67454,18.891544 12.06377,13.809119 10.73233,-14.592108 18.81098,1.868811 8.07864,16.460918 -13.57292,-1.967652 -10.02995,16.023282 3.54297,17.990936 16.59053,-7.270968 15.35638,11.023927 -1.23415,18.294899 -10.77067,-8.490496 -16.69783,8.861599 -5.92717,17.35209 18.0033,1.99842 7.78705,17.22519 z" />
    <path
       id="rect1184-1-3"
       style="opacity:0.9994;fill:#ff2a2a;fill-opacity:1;fill-rule:evenodd;stroke:#000000;stroke-width:0.887059;stroke-linejoin:round;stroke-miterlimit:4;stroke-dasharray:none;stroke-opacity:1;paint-order:markers fill stroke;stop-color:#000000"
       d="M 85.535156 75.357422 C 82.171585 75.357422 79.464844 78.064163 79.464844 81.427734 C 79.464844 84.791306 82.171585 87.5 85.535156 87.5 L 105.04102 87.5 L 104.95117 147.66406 C 104.94623 151.02763 107.65011 153.74189 111.01367 153.75 C 114.37724 153.75811 117.08881 151.05693 117.09375 147.69336 L 117.18359 87.5 L 134.46484 87.5 C 137.82842 87.5 140.53516 84.791306 140.53516 81.427734 C 140.53516 78.064163 137.82842 75.357422 134.46484 75.357422 L 85.535156 75.357422 z "
       transform="matrix(0.26458334,0,0,0.26458334,56.696426,53.672619)" />
    <path
       id="rect1184-1-46"
       style="opacity:0.9994;fill:#ff2a2a;fill-opacity:1;fill-rule:evenodd;stroke:#000000;stroke-width:1.01526;stroke-linejoin:round;stroke-miterlimit:4;stroke-dasharray:none;stroke-opacity:1;paint-order:markers fill stroke;stop-color:#000000"
       inkscape:transform-center-x="-7.3853592e-06"
       inkscape:transform-center-y="-0.24756326"
       d="M 202.92773 74.287109 C 200.30644 74.309031 198.20811 76.488799 198.22266 79.173828 L 198.34766 102.30664 C 198.31364 102.29152 198.27904 102.27686 198.24805 102.25781 L 198.24805 125.20898 C 198.24805 140.94654 202.76077 153.97266 218.125 153.97266 L 224.28711 153.97266 C 239.65138 153.97266 244.69922 141.30201 244.69922 125.56445 L 244.69922 123.50391 C 244.77103 123.15264 244.81048 122.78811 244.80859 122.41406 L 244.69922 105.51562 L 244.69922 102.61523 C 244.69559 102.61873 244.68542 102.61965 244.68164 102.62305 L 244.53516 79.841797 C 244.51626 77.015239 242.28096 74.75392 239.52148 74.773438 C 236.76194 74.793091 234.55424 77.085552 234.57227 79.912109 L 234.8457 122.48438 C 234.8471 122.70555 234.86392 122.92134 234.89453 123.13477 C 234.52489 134.93224 232.53844 144.31836 221.02539 144.31836 C 210.41822 144.31836 209.53861 135.99673 207.93945 125.51758 L 207.6875 79.09375 C 207.67238 76.408721 205.54906 74.265362 202.92773 74.287109 z M 150.50977 74.464844 C 147.14627 74.494425 144.45151 77.226262 144.46875 80.589844 L 144.81641 148.44531 C 144.83365 151.80889 147.55643 154.49247 150.91992 154.46289 C 154.28342 154.43331 156.97622 151.70147 156.95898 148.33789 L 156.81836 120.79297 L 178.24805 121.10352 L 178.38867 148.625 C 178.40591 151.98858 181.12674 154.67216 184.49023 154.64258 C 187.85373 154.613 190.54849 151.88116 190.53125 148.51758 L 190.18359 80.662109 C 190.16635 77.298528 187.44357 74.61495 184.08008 74.644531 C 180.71658 74.674112 178.02378 77.403996 178.04102 80.767578 L 178.18555 108.95898 L 156.75586 108.65039 L 156.61133 80.482422 C 156.59409 77.11884 153.87326 74.435263 150.50977 74.464844 z M 253.21484 74.642578 C 252.99195 74.642578 252.7742 74.662031 252.55859 74.689453 L 252.0918 74.683594 C 251.07034 74.672621 250.16722 75.251963 249.55664 76.154297 C 248.5116 77.176763 247.85742 78.629205 247.85742 80.251953 L 247.85742 148.31836 C 247.85742 148.39407 247.86438 148.46801 247.86719 148.54297 C 247.86541 148.60725 247.85574 148.66751 247.85547 148.73242 L 247.85938 148.73242 C 247.84803 151.53313 249.25752 153.81048 251.01953 153.83789 L 252.41211 153.85938 C 252.67466 153.90048 252.94102 153.92773 253.21484 153.92773 C 253.43904 153.92773 253.65818 153.91055 253.875 153.88281 L 266.20117 154.07422 C 266.18983 154.11012 266.18113 154.14692 266.16602 154.17969 L 281.22656 154.54688 C 291.55325 154.79863 300.14587 150.18727 300.29688 133.77344 L 300.35547 127.18945 C 300.43165 118.91879 298.3707 113.39745 294.98633 109.91992 C 297.92432 107.40098 299.74998 103.47052 299.81836 97.597656 L 299.87891 92.466797 C 300.02782 79.674109 291.87562 75.313417 281.68945 75.117188 L 280.35547 75.091797 C 280.12908 75.02762 279.89251 74.99138 279.65039 74.988281 L 268.71289 74.867188 L 266.83398 74.830078 C 266.83621 74.83314 266.83672 74.842302 266.83789 74.845703 L 253.96875 74.705078 C 253.72171 74.668819 253.47173 74.642578 253.21484 74.642578 z M 258.57227 83.050781 L 279.59766 83.283203 C 279.74052 83.284794 279.88323 83.273055 280.02148 83.25 C 287.65386 83.704866 293.70731 85.47449 293.5957 95.060547 C 293.50981 102.43952 289.71003 104.08426 284.50391 105.12891 C 283.65647 105.02615 282.79746 104.94922 281.91602 104.92773 L 280.56445 104.89453 C 280.33504 104.81218 280.09505 104.76576 279.84961 104.76172 L 268.76172 104.60742 L 266.85742 104.56055 C 266.85965 104.56433 266.86016 104.5775 266.86133 104.58203 L 258.57227 104.4668 L 258.57227 83.050781 z M 258.57227 115.10938 L 279.79688 115.40625 C 279.94201 115.40829 280.08431 115.39216 280.22461 115.36328 C 287.96221 115.9469 294.09945 118.21998 293.98633 130.51953 C 293.88201 141.85132 288.41345 142.65847 281.52148 144.19922 L 258.57227 143.84375 L 258.57227 115.10938 z "
       transform="matrix(0.26458334,0,0,0.26458334,56.696426,53.672619)" />
    <path
       sodipodi:type="star"
       style="opacity:0.9994;fill:#ff8080;fill-opacity:1;fill-rule:evenodd;stroke:none;stroke-width:0.264999;stroke-linejoin:round;stroke-miterlimit:4;stroke-dasharray:none;stroke-opacity:1;paint-order:markers fill stroke;stop-color:#000000"
       id="path1178-6"
       sodipodi:sides="12"
       sodipodi:cx="100.54167"
       sodipodi:cy="93.171135"
       sodipodi:r1="53.254757"
       sodipodi:r2="38.503189"
       sodipodi:arg1="0.59095535"
       sodipodi:arg2="0.85275474"
       inkscape:flatsided="false"
       inkscape:rounded="0.97"
       inkscape:randomized="0"
       transform="matrix(0.11320543,0,0,0.12437954,95.409024,81.018367)"
       d="m 144.76489,122.84227 c -10.21625,15.22677 -5.08242,-12.73832 -18.89154,-0.67455 -13.80912,12.06377 14.5921,10.73234 -1.86881,18.81098 -16.46092,8.07864 1.96765,-13.57292 -16.02329,-10.02995 -17.99093,3.54297 7.27097,16.59053 -11.023925,15.35638 -18.294895,-1.23415 8.490495,-10.77067 -8.861594,-16.69783 -17.352091,-5.92716 -1.998423,18.0033 -17.225192,7.78705 -15.226771,-10.21625 12.738319,-5.08242 0.674549,-18.89154 -12.06377,-13.80912 -10.732336,14.59211 -18.81098,-1.86881 -8.078644,-16.46092 13.57292,1.96765 10.029949,-16.02328 -3.542972,-17.990937 -16.59053,7.27096 -15.356382,-11.023931 1.234149,-18.294896 10.770668,8.490496 16.697832,-8.861595 5.927163,-17.352091 -18.003305,-1.998422 -7.787053,-17.225192 10.216252,-15.22677 5.082424,12.738319 18.891544,0.674549 13.809119,-12.06377 -14.592108,-10.732336 1.86881,-18.81098 16.460919,-8.078644 -1.967651,13.57292 16.023282,10.029949 17.99093,-3.542972 -7.270967,-16.59053 11.02393,-15.356382 18.29489,1.234149 -8.490498,10.770669 8.86159,16.697832 17.35209,5.927163 1.99843,-18.003304 17.22519,-7.787053 15.22678,10.216252 -12.73831,5.082424 -0.67454,18.891544 12.06377,13.809119 10.73233,-14.592108 18.81098,1.868811 8.07864,16.460918 -13.57292,-1.967652 -10.02995,16.023282 3.54297,17.990936 16.59053,-7.270968 15.35638,11.023927 -1.23415,18.294899 -10.77067,-8.490496 -16.69783,8.861599 -5.92717,17.35209 18.0033,1.99842 7.78705,17.22519 z" />
    <path
       sodipodi:type="star"
       style="opacity:0.9994;fill:#ff2a2a;fill-opacity:1;fill-rule:evenodd;stroke:none;stroke-width:0.264999;stroke-linejoin:round;stroke-miterlimit:4;stroke-dasharray:none;stroke-opacity:1;paint-order:markers fill stroke;stop-color:#000000"
       id="path1178-3"
       sodipodi:sides="12"
       sodipodi:cx="100.54167"
       sodipodi:cy="93.171135"
       sodipodi:r1="53.254757"
       sodipodi:r2="38.503189"
       sodipodi:arg1="0.59095535"
       sodipodi:arg2="0.85275474"
       inkscape:flatsided="false"
       inkscape:rounded="0.97"
       inkscape:randomized="0"
       transform="matrix(0.1281463,0,0,0.13702465,110.05271,51.678198)"
       d="m 144.76489,122.84227 c -10.21625,15.22677 -5.08242,-12.73832 -18.89154,-0.67455 -13.80912,12.06377 14.5921,10.73234 -1.86881,18.81098 -16.46092,8.07864 1.96765,-13.57292 -16.02329,-10.02995 -17.99093,3.54297 7.27097,16.59053 -11.023925,15.35638 -18.294895,-1.23415 8.490495,-10.77067 -8.861594,-16.69783 -17.352091,-5.92716 -1.998423,18.0033 -17.225192,7.78705 -15.226771,-10.21625 12.738319,-5.08242 0.674549,-18.89154 -12.06377,-13.80912 -10.732336,14.59211 -18.81098,-1.86881 -8.078644,-16.46092 13.57292,1.96765 10.029949,-16.02328 -3.542972,-17.990937 -16.59053,7.27096 -15.356382,-11.023931 1.234149,-18.294896 10.770668,8.490496 16.697832,-8.861595 5.927163,-17.352091 -18.003305,-1.998422 -7.787053,-17.225192 10.216252,-15.22677 5.082424,12.738319 18.891544,0.674549 13.809119,-12.06377 -14.592108,-10.732336 1.86881,-18.81098 16.460919,-8.078644 -1.967651,13.57292 16.023282,10.029949 17.99093,-3.542972 -7.270967,-16.59053 11.02393,-15.356382 18.29489,1.234149 -8.490498,10.770669 8.86159,16.697832 17.35209,5.927163 1.99843,-18.003304 17.22519,-7.787053 15.22678,10.216252 -12.73831,5.082424 -0.67454,18.891544 12.06377,13.809119 10.73233,-14.592108 18.81098,1.868811 8.07864,16.460918 -13.57292,-1.967652 -10.02995,16.023282 3.54297,17.990936 16.59053,-7.270968 15.35638,11.023927 -1.23415,18.294899 -10.77067,-8.490496 -16.69783,8.861599 -5.92717,17.35209 18.0033,1.99842 7.78705,17.22519 z" />
    <path
       sodipodi:type="star"
       style="opacity:0.9994;fill:#ff8080;fill-opacity:1;fill-rule:evenodd;stroke:none;stroke-width:0.264999;stroke-linejoin:round;stroke-miterlimit:4;stroke-dasharray:none;stroke-opacity:1;paint-order:markers fill stroke;stop-color:#000000"
       id="path1178-6-2"
       sodipodi:sides="12"
       sodipodi:cx="100.54167"
       sodipodi:cy="93.171135"
       sodipodi:r1="53.254757"
       sodipodi:r2="38.503189"
       sodipodi:arg1="0.59095535"
       sodipodi:arg2="0.85275474"
       inkscape:flatsided="false"
       inkscape:rounded="0.97"
       inkscape:randomized="0"
       transform="matrix(0.11320543,0,0,0.12437954,79.911993,107.09871)"
       d="m 144.76489,122.84227 c -10.21625,15.22677 -5.08242,-12.73832 -18.89154,-0.67455 -13.80912,12.06377 14.5921,10.73234 -1.86881,18.81098 -16.46092,8.07864 1.96765,-13.57292 -16.02329,-10.02995 -17.99093,3.54297 7.27097,16.59053 -11.023925,15.35638 -18.294895,-1.23415 8.490495,-10.77067 -8.861594,-16.69783 -17.352091,-5.92716 -1.998423,18.0033 -17.225192,7.78705 -15.226771,-10.21625 12.738319,-5.08242 0.674549,-18.89154 -12.06377,-13.80912 -10.732336,14.59211 -18.81098,-1.86881 -8.078644,-16.46092 13.57292,1.96765 10.029949,-16.02328 -3.542972,-17.990937 -16.59053,7.27096 -15.356382,-11.023931 1.234149,-18.294896 10.770668,8.490496 16.697832,-8.861595 5.927163,-17.352091 -18.003305,-1.998422 -7.787053,-17.225192 10.216252,-15.22677 5.082424,12.738319 18.891544,0.674549 13.809119,-12.06377 -14.592108,-10.732336 1.86881,-18.81098 16.460919,-8.078644 -1.967651,13.57292 16.023282,10.029949 17.99093,-3.542972 -7.270967,-16.59053 11.02393,-15.356382 18.29489,1.234149 -8.490498,10.770669 8.86159,16.697832 17.35209,5.927163 1.99843,-18.003304 17.22519,-7.787053 15.22678,10.216252 -12.73831,5.082424 -0.67454,18.891544 12.06377,13.809119 10.73233,-14.592108 18.81098,1.868811 8.07864,16.460918 -13.57292,-1.967652 -10.02995,16.023282 3.54297,17.990936 16.59053,-7.270968 15.35638,11.023927 -1.23415,18.294899 -10.77067,-8.490496 -16.69783,8.861599 -5.92717,17.35209 18.0033,1.99842 7.78705,17.22519 z" />
    <path
       sodipodi:type="star"
       style="opacity:0.9994;fill:#ff2a2a;fill-opacity:1;fill-rule:evenodd;stroke:none;stroke-width:0.264999;stroke-linejoin:round;stroke-miterlimit:4;stroke-dasharray:none;stroke-opacity:1;paint-order:markers fill stroke;stop-color:#000000"
       id="path1178-3-5"
       sodipodi:sides="12"
       sodipodi:cx="100.54167"
       sodipodi:cy="93.171135"
       sodipodi:r1="53.254757"
       sodipodi:r2="38.503189"
       sodipodi:arg1="0.59095535"
       sodipodi:arg2="0.85275474"
       inkscape:flatsided="false"
       inkscape:rounded="0.97"
       inkscape:randomized="0"
       transform="matrix(0.1281463,0,0,0.13702465,99.563873,97.129837)"
       d="m 144.76489,122.84227 c -10.21625,15.22677 -5.08242,-12.73832 -18.89154,-0.67455 -13.80912,12.06377 14.5921,10.73234 -1.86881,18.81098 -16.46092,8.07864 1.96765,-13.57292 -16.02329,-10.02995 -17.99093,3.54297 7.27097,16.59053 -11.023925,15.35638 -18.294895,-1.23415 8.490495,-10.77067 -8.861594,-16.69783 -17.352091,-5.92716 -1.998423,18.0033 -17.225192,7.78705 -15.226771,-10.21625 12.738319,-5.08242 0.674549,-18.89154 -12.06377,-13.80912 -10.732336,14.59211 -18.81098,-1.86881 -8.078644,-16.46092 13.57292,1.96765 10.029949,-16.02328 -3.542972,-17.990937 -16.59053,7.27096 -15.356382,-11.023931 1.234149,-18.294896 10.770668,8.490496 16.697832,-8.861595 5.927163,-17.352091 -18.003305,-1.998422 -7.787053,-17.225192 10.216252,-15.22677 5.082424,12.738319 18.891544,0.674549 13.809119,-12.06377 -14.592108,-10.732336 1.86881,-18.81098 16.460919,-8.078644 -1.967651,13.57292 16.023282,10.029949 17.99093,-3.542972 -7.270967,-16.59053 11.02393,-15.356382 18.29489,1.234149 -8.490498,10.770669 8.86159,16.697832 17.35209,5.927163 1.99843,-18.003304 17.22519,-7.787053 15.22678,10.216252 -12.73831,5.082424 -0.67454,18.891544 12.06377,13.809119 10.73233,-14.592108 18.81098,1.868811 8.07864,16.460918 -13.57292,-1.967652 -10.02995,16.023282 3.54297,17.990936 16.59053,-7.270968 15.35638,11.023927 -1.23415,18.294899 -10.77067,-8.490496 -16.69783,8.861599 -5.92717,17.35209 18.0033,1.99842 7.78705,17.22519 z" />
    <text
       xml:space="preserve"
       id="text1487"
       style="font-size:10.5833px;line-height:1.25;font-family:'Gloria Hallelujah';-inkscape-font-specification:'Gloria Hallelujah, Normal';white-space:pre;shape-inside:url(#rect1489);fill:#fff9f9;fill-opacity:1;"
       transform="translate(6.1471992,-4.4099473)"><tspan
         x="71.529297"
         y="107.66686"><tspan
           style="fill:#fff9f9;fill-opacity:1">account</tspan></tspan></text>
    <text
       xml:space="preserve"
       style="font-size:10.127px;line-height:1.25;font-family:'Gloria Hallelujah';-inkscape-font-specification:'Gloria Hallelujah, Normal';fill:#fff9f9;fill-opacity:1;stroke-width:0.253174"
       x="86.230019"
       y="68.02314"
       id="text1495"
       transform="scale(1.0247878,0.97581177)"><tspan
         sodipodi:role="line"
         id="tspan1493"
         x="86.230019"
         y="68.02314"
         style="fill:#fff9f9;fill-opacity:1;stroke-width:0.253174">my</tspan></text>
  </g>
</svg>
