<?xml version="1.0" encoding="UTF-8" standalone="no"?>
<svg
   xmlns:dc="http://purl.org/dc/elements/1.1/"
   xmlns:cc="http://creativecommons.org/ns#"
   xmlns:rdf="http://www.w3.org/1999/02/22-rdf-syntax-ns#"
   xmlns:svg="http://www.w3.org/2000/svg"
   xmlns="http://www.w3.org/2000/svg"
   xmlns:sodipodi="http://sodipodi.sourceforge.net/DTD/sodipodi-0.dtd"
   xmlns:inkscape="http://www.inkscape.org/namespaces/inkscape"
   width="300"
   height="300"
   viewBox="0 0 79.374999 79.375003"
   version="1.1"
   id="svg8"
   inkscape:version="1.0.2 (e86c870879, 2021-01-15, custom)"
   sodipodi:docname="tg_link.svg">
  <defs
     id="defs2">
    <inkscape:path-effect
       effect="mirror_symmetry"
       start_point="-3.4314293,35.892398"
       end_point="-3.4314293,77.051908"
       center_point="-3.4314293,56.472153"
       id="path-effect897"
       is_visible="true"
       lpeversion="1"
       mode="free"
       discard_orig_path="false"
       fuse_paths="false"
       oposite_fuse="false"
       split_items="true" />
  </defs>
  <sodipodi:namedview
     id="base"
     pagecolor="#283746"
     bordercolor="#666666"
     borderopacity="1.0"
     inkscape:pageopacity="0"
     inkscape:pageshadow="2"
     inkscape:zoom="1.4"
     inkscape:cx="92.102533"
     inkscape:cy="134.16656"
     inkscape:document-units="px"
     inkscape:current-layer="layer1"
     inkscape:document-rotation="0"
     showgrid="false"
     units="px"
     inkscape:window-width="1566"
     inkscape:window-height="1033"
     inkscape:window-x="224"
     inkscape:window-y="0"
     inkscape:window-maximized="0"
     inkscape:snap-center="true"
     fit-margin-top="0"
     fit-margin-left="0"
     fit-margin-right="0"
     fit-margin-bottom="0"
     inkscape:snap-global="false" />
  <metadata
     id="metadata5">
    <rdf:RDF>
      <cc:Work
         rdf:about="">
        <dc:format>image/svg+xml</dc:format>
        <dc:type
           rdf:resource="http://purl.org/dc/dcmitype/StillImage" />
        <dc:title></dc:title>
      </cc:Work>
    </rdf:RDF>
  </metadata>
  <g
     inkscape:label="Layer 1"
     inkscape:groupmode="layer"
     id="layer1"
     transform="translate(-56.696426,-53.672619)">
    <rect
       style="opacity:0.9994;fill:#2e4b80;fill-opacity:1;fill-rule:evenodd;stroke:#000000;stroke-width:0.165498;stroke-linejoin:round;stroke-miterlimit:4;stroke-dasharray:none;stroke-opacity:1;paint-order:markers fill stroke;stop-color:#000000"
       id="rect958"
       width="20.976744"
       height="20.257504"
       x="57.363201"
       y="57.731323"
       ry="2.0586901" />
    <rect
       style="opacity:0.9994;fill:#2e4b80;fill-opacity:1;fill-rule:evenodd;stroke:#000000;stroke-width:0.264999;stroke-linejoin:round;stroke-miterlimit:4;stroke-dasharray:none;stroke-opacity:1;paint-order:markers fill stroke;stop-color:#000000"
       id="rect960"
       width="20.045216"
       height="23.786989"
       x="70.594444"
       y="59.018009"
       ry="3.3408673" />
    <rect
       style="opacity:0.9994;fill:#2e4b80;fill-opacity:1;fill-rule:evenodd;stroke:#000000;stroke-width:0.206566;stroke-linejoin:round;stroke-miterlimit:4;stroke-dasharray:none;stroke-opacity:1;paint-order:markers fill stroke;stop-color:#000000"
       id="rect962"
       width="15.632784"
       height="15.770353"
       x="85.459595"
       y="56.516212"
       ry="2.4641161" />
    <rect
       style="opacity:0.9994;fill:#2e4b80;fill-opacity:1;fill-rule:evenodd;stroke:#000000;stroke-width:0.264999;stroke-linejoin:round;stroke-miterlimit:4;stroke-dasharray:none;stroke-opacity:1;paint-order:markers fill stroke;stop-color:#000000"
       id="rect964"
       width="10.690782"
       height="10.156242"
       x="57.598766"
       y="93.925179"
       ry="3.3408673" />
    <rect
       style="opacity:0.9994;fill:#2e4b80;fill-opacity:1;fill-rule:evenodd;stroke:#000000;stroke-width:0.264999;stroke-linejoin:round;stroke-miterlimit:4;stroke-dasharray:none;stroke-opacity:1;paint-order:markers fill stroke;stop-color:#000000"
       id="rect966"
       width="14.967093"
       height="16.036173"
       x="60.705467"
       y="86.01223"
       ry="3.3408673" />
    <rect
       style="opacity:0.9994;fill:#2e4b80;fill-opacity:1;fill-rule:evenodd;stroke:#000000;stroke-width:0.264999;stroke-linejoin:round;stroke-miterlimit:4;stroke-dasharray:none;stroke-opacity:1;paint-order:markers fill stroke;stop-color:#000000"
       id="rect968"
       width="10.690782"
       height="10.156242"
       x="62.309086"
       y="121.29181"
       ry="3.3408673" />
    <rect
       style="opacity:0.9994;fill:#2e4b80;fill-opacity:1;fill-rule:evenodd;stroke:#000000;stroke-width:0.264999;stroke-linejoin:round;stroke-miterlimit:4;stroke-dasharray:none;stroke-opacity:1;paint-order:markers fill stroke;stop-color:#000000"
       id="rect970"
       width="13.096208"
       height="13.096208"
       x="67.65448"
       y="114.61007"
       ry="3.3408673" />
    <rect
       style="opacity:0.9994;fill:#2e4b80;fill-opacity:1;fill-rule:evenodd;stroke:#000000;stroke-width:0.264999;stroke-linejoin:round;stroke-miterlimit:4;stroke-dasharray:none;stroke-opacity:1;paint-order:markers fill stroke;stop-color:#000000"
       id="rect972"
       width="17.105251"
       height="16.570711"
       x="75.138023"
       y="107.3938"
       ry="3.3408673" />
    <rect
       style="opacity:0.9994;fill:#2e4b80;fill-opacity:1;fill-rule:evenodd;stroke:#000000;stroke-width:0.264999;stroke-linejoin:round;stroke-miterlimit:4;stroke-dasharray:none;stroke-opacity:1;paint-order:markers fill stroke;stop-color:#000000"
       id="rect974"
       width="39.823158"
       height="40.3577"
       x="74.603485"
       y="73.183296"
       ry="3.3408673" />
    <path
       id="rect1018"
       style="opacity:0.9994;fill:#f9f9f9;fill-opacity:1;fill-rule:evenodd;stroke:none;stroke-width:0.264999;stroke-linejoin:round;stroke-miterlimit:4;stroke-dasharray:none;stroke-opacity:1;paint-order:markers fill stroke;stop-color:#000000"
       d="m 96.572684,90.336603 c -0.628195,0 -1.133779,0.505584 -1.133779,1.133779 v 7.748366 c 0,0.628195 0.505584,1.133782 1.133779,1.133782 h 6.047696 c 0.0647,0 0.12743,-0.008 0.18914,-0.0186 v 4.91702 l -2.41949,2.81843 c -0.43341,0.5049 -0.558746,1.39826 -0.28112,2.00298 0.27762,0.60472 0.84972,0.68524 1.28312,0.18035 l 3.27784,-3.81837 c 0.18955,-0.22082 0.31605,-0.51715 0.37982,-0.82993 0.002,-0.01 0.004,-0.0195 0.006,-0.0294 0.0434,-0.22882 0.0527,-0.46407 0.0217,-0.68781 V 91.470382 c 0,-0.628195 -0.50611,-1.133779 -1.1343,-1.133779 z m 1.134298,2.267561 h 5.102538 v 5.499405 c -0.0617,-0.01032 -0.12441,-0.0186 -0.18914,-0.0186 h -4.913398 z" />
    <rect
       style="opacity:0.9994;fill:#2e4b80;fill-opacity:1;fill-rule:evenodd;stroke:#000000;stroke-width:0.264999;stroke-linejoin:round;stroke-miterlimit:4;stroke-dasharray:none;stroke-opacity:1;paint-order:markers fill stroke;stop-color:#000000"
       id="rect976"
       width="23.51972"
       height="26.192415"
       x="107.47764"
       y="61.690704"
       ry="3.3408673" />
    <rect
       style="opacity:0.9994;fill:#2e4b80;fill-opacity:1;fill-rule:evenodd;stroke:#000000;stroke-width:0.264999;stroke-linejoin:round;stroke-miterlimit:4;stroke-dasharray:none;stroke-opacity:1;paint-order:markers fill stroke;stop-color:#000000"
       id="rect978"
       width="16.83798"
       height="16.036173"
       x="111.12214"
       y="56.917843"
       ry="3.3408673" />
    <rect
       style="opacity:0.9994;fill:#2e4b80;fill-opacity:1;fill-rule:evenodd;stroke:#000000;stroke-width:0.264999;stroke-linejoin:round;stroke-miterlimit:4;stroke-dasharray:none;stroke-opacity:1;paint-order:markers fill stroke;stop-color:#000000"
       id="rect980"
       width="15.501628"
       height="15.768903"
       x="119.65807"
       y="75.297844"
       ry="3.3408673" />
    <rect
       style="opacity:0.9994;fill:#2e4b80;fill-opacity:1;fill-rule:evenodd;stroke:#000000;stroke-width:0.264999;stroke-linejoin:round;stroke-miterlimit:4;stroke-dasharray:none;stroke-opacity:1;paint-order:markers fill stroke;stop-color:#000000"
       id="rect982"
       width="24.856066"
       height="26.192415"
       x="107.21037"
       y="98.306633"
       ry="3.3408673" />
    <rect
       style="opacity:0.9994;fill:#2e4b80;fill-opacity:1;fill-rule:evenodd;stroke:#000000;stroke-width:0.264999;stroke-linejoin:round;stroke-miterlimit:4;stroke-dasharray:none;stroke-opacity:1;paint-order:markers fill stroke;stop-color:#000000"
       id="rect984"
       width="12.027129"
       height="11.225321"
       x="110.30689"
       y="120.31675"
       ry="3.3408673" />
    <rect
       style="opacity:0.9994;fill:#2e4b80;fill-opacity:1;fill-rule:evenodd;stroke:#000000;stroke-width:0.264999;stroke-linejoin:round;stroke-miterlimit:4;stroke-dasharray:none;stroke-opacity:1;paint-order:markers fill stroke;stop-color:#000000"
       id="rect986"
       width="10.690782"
       height="9.0871649"
       x="124.37164"
       y="119.15366"
       ry="3.3408673" />
    <rect
       style="opacity:0.9994;fill:#2e4b80;fill-opacity:1;fill-rule:evenodd;stroke:#000000;stroke-width:0.264999;stroke-linejoin:round;stroke-miterlimit:4;stroke-dasharray:none;stroke-opacity:1;paint-order:markers fill stroke;stop-color:#000000"
       id="rect988"
       width="9.8889694"
       height="9.8889713"
       x="125.64084"
       y="102.0864"
       ry="3.3408673" />
    <rect
       style="opacity:0.9994;fill:#2e4b80;fill-opacity:1;fill-rule:evenodd;stroke:#000000;stroke-width:0.264999;stroke-linejoin:round;stroke-miterlimit:4;stroke-dasharray:none;stroke-opacity:1;paint-order:markers fill stroke;stop-color:#000000"
       id="rect990"
       width="10.259481"
       height="9.0273199"
       x="96.95089"
       y="115.47173"
       ry="3.3408673" />
    <rect
       style="opacity:0.9994;fill:#2e4b80;fill-opacity:1;fill-rule:evenodd;stroke:#000000;stroke-width:0.264999;stroke-linejoin:round;stroke-miterlimit:4;stroke-dasharray:none;stroke-opacity:1;paint-order:markers fill stroke;stop-color:#000000"
       id="rect992"
       width="8.8824415"
       height="9.0714283"
       x="119.0625"
       y="92.793159"
       ry="3.3408673" />
    <rect
       style="opacity:0.9994;fill:#2e4b80;fill-opacity:1;fill-rule:evenodd;stroke:#000000;stroke-width:0.259982;stroke-linejoin:round;stroke-miterlimit:4;stroke-dasharray:none;stroke-opacity:1;paint-order:markers fill stroke;stop-color:#000000"
       id="rect994"
       width="11.113317"
       height="11.887625"
       x="57.945763"
       y="67.975479"
       ry="3.4450064" />
    <rect
       style="opacity:0.9994;fill:#2e4b80;fill-opacity:1;fill-rule:evenodd;stroke:#000000;stroke-width:0.251721;stroke-linejoin:round;stroke-miterlimit:4;stroke-dasharray:none;stroke-opacity:1;paint-order:markers fill stroke;stop-color:#000000"
       id="rect996"
       width="10.218635"
       height="10.596612"
       x="68.218063"
       y="54.043957"
       ry="3.3450587" />
    <path
       id="rect1032-5"
       style="opacity:0.9994;fill:#f9f9f9;fill-opacity:1;fill-rule:evenodd;stroke:none;stroke-width:0.115901;stroke-linejoin:round;stroke-miterlimit:4;stroke-dasharray:none;stroke-opacity:1;paint-order:markers fill stroke;stop-color:#000000"
       d="m 97.05686,60.27159 c 0.81716,0 1.47502,0.645581 1.47502,1.447483 v 3.287231 c 0,0.801902 -0.65786,1.447484 -1.47502,1.447484 h -6.07644 l -2.08578,3.070499 0.0331,-4.213485 c -0.0212,-0.0982 -0.0331,-0.199891 -0.0331,-0.304498 v -3.287231 c 0,-0.801902 0.65786,-1.447483 1.47501,-1.447483 z" />
    <rect
       style="opacity:0.9994;fill:#2e4b80;fill-opacity:1;fill-rule:evenodd;stroke:#000000;stroke-width:0.19153;stroke-linejoin:round;stroke-miterlimit:4;stroke-dasharray:none;stroke-opacity:1;paint-order:markers fill stroke;stop-color:#000000"
       id="rect998"
       width="8.1999569"
       height="8.5779333"
       x="96.725166"
       y="54.580822"
       ry="2.3328891" />
    <rect
       style="opacity:0.9994;fill:#2e4b80;fill-opacity:1;fill-rule:evenodd;stroke:#000000;stroke-width:0.240665;stroke-linejoin:round;stroke-miterlimit:4;stroke-dasharray:none;stroke-opacity:1;paint-order:markers fill stroke;stop-color:#000000"
       id="rect1000"
       width="9.9394941"
       height="9.4603081"
       x="122.07414"
       y="54.429836"
       ry="2.9339666" />
    <rect
       style="opacity:0.9994;fill:#2e4b80;fill-opacity:1;fill-rule:evenodd;stroke:#000000;stroke-width:0.301063;stroke-linejoin:round;stroke-miterlimit:4;stroke-dasharray:none;stroke-opacity:1;paint-order:markers fill stroke;stop-color:#000000"
       id="rect1002"
       width="9.9663172"
       height="10.305907"
       x="109.25315"
       y="65.218925"
       ry="3.5917587" />
    <rect
       style="opacity:0.9994;fill:#2e4b80;fill-opacity:1;fill-rule:evenodd;stroke:#000000;stroke-width:0.264999;stroke-linejoin:round;stroke-miterlimit:4;stroke-dasharray:none;stroke-opacity:1;paint-order:markers fill stroke;stop-color:#000000"
       id="rect1004"
       width="10.961309"
       height="10.583334"
       x="102.80952"
       y="92.604164"
       ry="3.3408673" />
    <rect
       style="opacity:0.9994;fill:#2e4b80;fill-opacity:1;fill-rule:evenodd;stroke:#000000;stroke-width:0.264999;stroke-linejoin:round;stroke-miterlimit:4;stroke-dasharray:none;stroke-opacity:1;paint-order:markers fill stroke;stop-color:#000000"
       id="rect1006"
       width="10.583334"
       height="9.6383924"
       x="71.059525"
       y="90.336311"
       ry="3.3408673" />
    <rect
       style="opacity:0.9994;fill:#2e4b80;fill-opacity:1;fill-rule:evenodd;stroke:#000000;stroke-width:0.264999;stroke-linejoin:round;stroke-miterlimit:4;stroke-dasharray:none;stroke-opacity:1;paint-order:markers fill stroke;stop-color:#000000"
       id="rect1008"
       width="14.293361"
       height="14.190911"
       x="59.909225"
       y="106.96726"
       ry="3.3408673" />
    <rect
       style="opacity:0.9994;fill:#2e4b80;fill-opacity:1;fill-rule:evenodd;stroke:#000000;stroke-width:0.264999;stroke-linejoin:round;stroke-miterlimit:4;stroke-dasharray:none;stroke-opacity:1;paint-order:markers fill stroke;stop-color:#000000"
       id="rect1010"
       width="12.662203"
       height="10.772322"
       x="84.288689"
       y="120.38541"
       ry="3.3408673" />
    <path
       id="rect1014"
       style="opacity:0.9994;fill:#f9f9f9;fill-opacity:1;fill-rule:evenodd;stroke:none;stroke-width:0.246131;stroke-linejoin:round;stroke-miterlimit:4;stroke-dasharray:none;stroke-opacity:1;paint-order:markers fill stroke;stop-color:#000000"
       d="m 83.40074,80.886979 c -0.869275,0 -1.568897,0.603541 -1.568897,1.353437 v 0.553678 c 0,0.749896 0.699622,1.353438 1.568897,1.353438 h 4.100524 v 15.112933 c 0,0.749895 0.70014,1.353435 1.569415,1.353435 0.869273,0 1.568895,-0.60354 1.568895,-1.353435 V 84.147532 h 3.986321 c 0.869275,0 1.568897,-0.603542 1.568897,-1.353438 v -0.553678 c 0,-0.749896 -0.699622,-1.353437 -1.568897,-1.353437 z" />
    <path
       style="fill:#f9f9f9;stroke:none;stroke-width:0.264583px;stroke-linecap:butt;stroke-linejoin:miter;stroke-opacity:1;fill-opacity:1"
       d="m 77.863093,106.68378 3.118304,-1.41741 6.803571,3.30729 -4.91369,-4.06324 3.779763,-1.13393 6.80357,8.78795 z"
       id="path1030" />
    <path
       id="rect1032"
       style="opacity:0.9994;fill:#f9f9f9;fill-opacity:1;fill-rule:evenodd;stroke:none;stroke-width:0.115901;stroke-linejoin:round;stroke-miterlimit:4;stroke-dasharray:none;stroke-opacity:1;paint-order:markers fill stroke;stop-color:#000000"
       d="m 124.4726,79.193806 c -0.81716,0 -1.47502,0.645581 -1.47502,1.447483 v 3.287231 c 0,0.801902 0.65786,1.447484 1.47502,1.447484 h 6.07644 l 2.08578,3.070499 -0.0331,-4.213485 c 0.0212,-0.0982 0.0331,-0.199891 0.0331,-0.304498 v -3.287231 c 0,-0.801902 -0.65786,-1.447483 -1.47501,-1.447483 z" />
    <path
       id="rect1032-8"
       style="opacity:0.9994;fill:#f9f9f9;fill-opacity:1;fill-rule:evenodd;stroke:none;stroke-width:0.0978798;stroke-linejoin:round;stroke-miterlimit:4;stroke-dasharray:none;stroke-opacity:1;paint-order:markers fill stroke;stop-color:#000000"
       d="m 87.819999,122.38883 c -0.681185,0 -1.229579,0.55234 -1.229579,1.23842 v 2.81246 c 0,0.68609 0.548394,1.23843 1.229579,1.23843 h 5.065334 l 1.73871,2.62703 -0.0276,-3.60494 c 0.01767,-0.084 0.0276,-0.17102 0.0276,-0.26052 v -2.81246 c 0,-0.68608 -0.548394,-1.23842 -1.229572,-1.23842 z" />
    <path
       id="rect1032-2"
       style="opacity:0.9994;fill:#f9f9f9;fill-opacity:1;fill-rule:evenodd;stroke:none;stroke-width:0.115901;stroke-linejoin:round;stroke-miterlimit:4;stroke-dasharray:none;stroke-opacity:1;paint-order:markers fill stroke;stop-color:#000000"
       d="m 70.463537,110.11736 c 0.81716,0 1.47502,0.64558 1.47502,1.44748 v 3.28724 c 0,0.8019 -0.65786,1.44748 -1.47502,1.44748 h -6.07644 l -2.08578,3.0705 0.0331,-4.21349 c -0.0212,-0.0982 -0.0331,-0.19989 -0.0331,-0.30449 v -3.28724 c 0,-0.8019 0.65786,-1.44748 1.47501,-1.44748 z" />
    <path
       id="rect1032-9"
       style="opacity:0.9994;fill:#f9f9f9;fill-opacity:1;fill-rule:evenodd;stroke:none;stroke-width:0.0880044;stroke-linejoin:round;stroke-miterlimit:4;stroke-dasharray:none;stroke-opacity:1;paint-order:markers fill stroke;stop-color:#000000"
       d="m 105.86313,94.482088 c -0.59054,0 -1.06595,0.515044 -1.06595,1.154809 v 2.622555 c 0,0.639757 0.47541,1.1548 1.06595,1.1548 h 4.39126 l 1.50733,2.449648 -0.0239,-3.361525 c 0.0153,-0.07834 0.0239,-0.159473 0.0239,-0.242923 v -2.622555 c 0,-0.639765 -0.47542,-1.154809 -1.06595,-1.154809 z" />
    <path
       id="rect1032-26"
       style="opacity:0.9994;fill:#f9f9f9;fill-opacity:1;fill-rule:evenodd;stroke:none;stroke-width:0.0872042;stroke-linejoin:round;stroke-miterlimit:4;stroke-dasharray:none;stroke-opacity:1;paint-order:markers fill stroke;stop-color:#000000"
       d="m 78.757057,91.809395 c 0.590537,0 1.065953,0.505722 1.065953,1.133898 v 2.575079 c 0,0.628177 -0.475416,1.133899 -1.065953,1.133899 h -4.391261 l -1.507331,2.4053 0.02392,-3.300668 c -0.01532,-0.07693 -0.02392,-0.156586 -0.02392,-0.238531 v -2.575079 c 0,-0.628176 0.475416,-1.133898 1.065946,-1.133898 z" />
    <path
       id="rect1032-21"
       style="opacity:0.9994;fill:#f9f9f9;fill-opacity:1;fill-rule:evenodd;stroke:none;stroke-width:0.0904388;stroke-linejoin:round;stroke-miterlimit:4;stroke-dasharray:none;stroke-opacity:1;paint-order:markers fill stroke;stop-color:#000000"
       d="m 129.78508,55.327103 c 0.60187,0 1.08641,0.533693 1.08641,1.196615 v 2.717509 c 0,0.662922 -0.48454,1.196616 -1.08641,1.196616 h -4.47552 l -1.53625,2.53834 0.0244,-3.483231 c -0.0156,-0.08118 -0.0244,-0.165247 -0.0244,-0.251725 v -2.717509 c 0,-0.662922 0.48454,-1.196615 1.0864,-1.196615 z" />
    <path
       id="rect1032-1"
       style="opacity:0.9994;fill:#f9f9f9;fill-opacity:1;fill-rule:evenodd;stroke:none;stroke-width:0.101869;stroke-linejoin:round;stroke-miterlimit:4;stroke-dasharray:none;stroke-opacity:1;paint-order:markers fill stroke;stop-color:#000000"
       d="m 119.65066,122.1445 c 0.73784,0 1.33185,0.55234 1.33185,1.23842 v 2.81246 c 0,0.68609 -0.59401,1.23843 -1.33185,1.23843 h -5.48662 l -1.88332,2.62703 0.0299,-3.60494 c -0.0191,-0.084 -0.0299,-0.17102 -0.0299,-0.26052 v -2.81246 c 0,-0.68608 0.594,-1.23842 1.33184,-1.23842 z" />
  </g>
</svg>
