<?xml version="1.0" encoding="UTF-8" standalone="no"?>
<svg
   xmlns:dc="http://purl.org/dc/elements/1.1/"
   xmlns:cc="http://creativecommons.org/ns#"
   xmlns:rdf="http://www.w3.org/1999/02/22-rdf-syntax-ns#"
   xmlns:svg="http://www.w3.org/2000/svg"
   xmlns="http://www.w3.org/2000/svg"
   xmlns:xlink="http://www.w3.org/1999/xlink"
   xmlns:sodipodi="http://sodipodi.sourceforge.net/DTD/sodipodi-0.dtd"
   xmlns:inkscape="http://www.inkscape.org/namespaces/inkscape"
   width="640"
   height="550"
   viewBox="0 0 169.33333 145.52084"
   version="1.1"
   id="svg8"
   inkscape:version="1.0.2 (e86c870879, 2021-01-15, custom)"
   sodipodi:docname="open_button.svg">
  <defs
     id="defs2">
    <inkscape:path-effect
       effect="spiro"
       id="path-effect943"
       is_visible="true"
       lpeversion="1" />
    <inkscape:path-effect
       effect="spiro"
       id="path-effect935"
       is_visible="true"
       lpeversion="1" />
    <inkscape:path-effect
       effect="spiro"
       id="path-effect931"
       is_visible="true"
       lpeversion="1" />
    <inkscape:path-effect
       effect="spiro"
       id="path-effect927"
       is_visible="true"
       lpeversion="1" />
    <inkscape:path-effect
       effect="spiro"
       id="path-effect923"
       is_visible="true"
       lpeversion="1" />
    <inkscape:path-effect
       effect="spiro"
       id="path-effect918"
       is_visible="true"
       lpeversion="1" />
    <inkscape:path-effect
       effect="spiro"
       id="path-effect914"
       is_visible="true"
       lpeversion="1" />
    <inkscape:path-effect
       effect="spiro"
       id="path-effect910"
       is_visible="true"
       lpeversion="1" />
    <inkscape:path-effect
       effect="spiro"
       id="path-effect2077"
       is_visible="true"
       lpeversion="1" />
    <inkscape:path-effect
       effect="spiro"
       id="path-effect2073"
       is_visible="true"
       lpeversion="1" />
    <inkscape:path-effect
       effect="spiro"
       id="path-effect2069"
       is_visible="true"
       lpeversion="1" />
    <inkscape:path-effect
       effect="spiro"
       id="path-effect2065"
       is_visible="true"
       lpeversion="1" />
    <inkscape:path-effect
       effect="spiro"
       id="path-effect1978"
       is_visible="true"
       lpeversion="1" />
    <inkscape:path-effect
       effect="spiro"
       id="path-effect1974"
       is_visible="true"
       lpeversion="1" />
    <inkscape:path-effect
       effect="spiro"
       id="path-effect1970"
       is_visible="true"
       lpeversion="1" />
    <inkscape:path-effect
       effect="spiro"
       id="path-effect1966"
       is_visible="true"
       lpeversion="1" />
    <inkscape:path-effect
       effect="spiro"
       id="path-effect1897"
       is_visible="true"
       lpeversion="1" />
    <rect
       x="56.201839"
       y="54.408623"
       width="23.105179"
       height="13.138238"
       id="rect1863" />
    <inkscape:path-effect
       effect="spiro"
       id="path-effect1835"
       is_visible="true"
       lpeversion="1" />
    <inkscape:path-effect
       effect="spiro"
       id="path-effect1831"
       is_visible="true"
       lpeversion="1" />
    <inkscape:path-effect
       effect="spiro"
       id="path-effect1813"
       is_visible="true"
       lpeversion="1" />
    <inkscape:path-effect
       effect="spiro"
       id="path-effect1809"
       is_visible="true"
       lpeversion="1" />
    <inkscape:path-effect
       effect="spiro"
       id="path-effect1799"
       is_visible="true"
       lpeversion="1" />
    <inkscape:path-effect
       effect="spiro"
       id="path-effect1795"
       is_visible="true"
       lpeversion="1" />
    <inkscape:path-effect
       effect="spiro"
       id="path-effect1791"
       is_visible="true"
       lpeversion="1" />
    <inkscape:path-effect
       effect="spiro"
       id="path-effect1695"
       is_visible="true"
       lpeversion="1" />
    <inkscape:path-effect
       effect="spiro"
       id="path-effect1691"
       is_visible="true"
       lpeversion="1" />
    <linearGradient
       inkscape:collect="always"
       id="linearGradient1346">
      <stop
         style="stop-color:#ff6600;stop-opacity:1;"
         offset="0"
         id="stop1342" />
      <stop
         style="stop-color:#ff6600;stop-opacity:0;"
         offset="1"
         id="stop1344" />
    </linearGradient>
    <linearGradient
       inkscape:collect="always"
       id="linearGradient1142">
      <stop
         style="stop-color:#ffcc00;stop-opacity:1;"
         offset="0"
         id="stop1138" />
      <stop
         style="stop-color:#483e37;stop-opacity:1"
         offset="1"
         id="stop1140" />
    </linearGradient>
    <inkscape:path-effect
       effect="spiro"
       id="path-effect1107"
       is_visible="true"
       lpeversion="1" />
    <inkscape:path-effect
       effect="spiro"
       id="path-effect1095"
       is_visible="true"
       lpeversion="1" />
    <inkscape:path-effect
       effect="spiro"
       id="path-effect1071"
       is_visible="true"
       lpeversion="1" />
    <inkscape:path-effect
       effect="spiro"
       id="path-effect1048"
       is_visible="true"
       lpeversion="1" />
    <inkscape:path-effect
       effect="spiro"
       id="path-effect1038"
       is_visible="true"
       lpeversion="1" />
    <inkscape:path-effect
       effect="spiro"
       id="path-effect1025"
       is_visible="true"
       lpeversion="1" />
    <inkscape:path-effect
       effect="spiro"
       id="path-effect1023"
       is_visible="true"
       lpeversion="1" />
    <inkscape:path-effect
       effect="spiro"
       id="path-effect1021"
       is_visible="true"
       lpeversion="1" />
    <inkscape:path-effect
       effect="spiro"
       id="path-effect983"
       is_visible="true"
       lpeversion="1" />
    <inkscape:path-effect
       effect="spiro"
       id="path-effect981"
       is_visible="true"
       lpeversion="1" />
    <inkscape:path-effect
       effect="spiro"
       id="path-effect979"
       is_visible="true"
       lpeversion="1" />
    <inkscape:path-effect
       effect="spiro"
       id="path-effect922"
       is_visible="true"
       lpeversion="1" />
    <inkscape:path-effect
       effect="spiro"
       id="path-effect917"
       is_visible="true"
       lpeversion="1" />
    <inkscape:path-effect
       effect="spiro"
       id="path-effect889"
       is_visible="true"
       lpeversion="1" />
    <inkscape:path-effect
       effect="spiro"
       id="path-effect884"
       is_visible="true"
       lpeversion="1" />
    <inkscape:path-effect
       effect="spiro"
       id="path-effect880"
       is_visible="true"
       lpeversion="1" />
    <inkscape:path-effect
       effect="spiro"
       id="path-effect876"
       is_visible="true"
       lpeversion="1" />
    <inkscape:path-effect
       effect="spiro"
       id="path-effect841"
       is_visible="true"
       lpeversion="1" />
    <inkscape:path-effect
       effect="spiro"
       id="path-effect837"
       is_visible="true"
       lpeversion="1" />
    <linearGradient
       inkscape:collect="always"
       xlink:href="#linearGradient1142"
       id="linearGradient1775"
       gradientUnits="userSpaceOnUse"
       gradientTransform="matrix(1.0107458,0,0,1.0014384,-88.756901,4.0005294)"
       x1="-54.42857"
       y1="0.37797552"
       x2="-53.672619"
       y2="145.8988" />
    <radialGradient
       inkscape:collect="always"
       xlink:href="#linearGradient1346"
       id="radialGradient1843"
       gradientUnits="userSpaceOnUse"
       gradientTransform="matrix(1.0002968,0,0,0.86697467,-179.66997,-45.392644)"
       cx="33.829662"
       cy="131.32716"
       fx="33.829662"
       fy="131.32716"
       r="75.028267" />
    <rect
       x="56.201839"
       y="54.408623"
       width="23.105179"
       height="13.138238"
       id="rect1984" />
    <rect
       x="56.201839"
       y="54.408623"
       width="23.105179"
       height="13.138238"
       id="rect2083" />
  </defs>
  <sodipodi:namedview
     id="base"
     pagecolor="#283746"
     bordercolor="#666666"
     borderopacity="1.0"
     inkscape:pageopacity="0"
     inkscape:pageshadow="2"
     inkscape:zoom="1.4142136"
     inkscape:cx="242.26853"
     inkscape:cy="244.24061"
     inkscape:document-units="px"
     inkscape:current-layer="layer1"
     inkscape:document-rotation="0"
     showgrid="false"
     units="px"
     inkscape:snap-to-guides="true"
     inkscape:snap-others="true"
     inkscape:snap-global="false"
     fit-margin-top="0"
     fit-margin-left="0"
     fit-margin-right="0"
     fit-margin-bottom="0"
     inkscape:window-width="1920"
     inkscape:window-height="1051"
     inkscape:window-x="-9"
     inkscape:window-y="-9"
     inkscape:window-maximized="1"
     inkscape:lockguides="true" />
  <metadata
     id="metadata5">
    <rdf:RDF>
      <cc:Work
         rdf:about="">
        <dc:format>image/svg+xml</dc:format>
        <dc:type
           rdf:resource="http://purl.org/dc/dcmitype/StillImage" />
        <dc:title></dc:title>
      </cc:Work>
    </rdf:RDF>
  </metadata>
  <g
     inkscape:label="Layer 1"
     inkscape:groupmode="layer"
     id="layer1"
     transform="translate(230.11144,6.0151344)">
    <path
       style="fill:#6c5d53;fill-opacity:1;stroke:none;stroke-width:0.296912;stroke-linecap:butt;stroke-linejoin:miter;stroke-miterlimit:4;stroke-dasharray:none;stroke-opacity:1"
       d="M -230.11144,139.08389 -143.09883,-6.0151344 -60.778109,139.5057 Z"
       id="path1821-5"
       sodipodi:nodetypes="cccc" />
    <path
       style="fill:url(#linearGradient1775);fill-opacity:1;stroke:none;stroke-width:0.266191px;stroke-linecap:butt;stroke-linejoin:miter;stroke-opacity:1"
       d="M -221.70606,134.58988 -143.77035,4.3790531 -70.037053,134.9684 Z"
       id="path1112-3"
       sodipodi:nodetypes="cccc" />
    <path
       id="rect1114-2"
       style="opacity:0.9994;fill:#d3bc5f;fill-opacity:1;fill-rule:evenodd;stroke:none;stroke-width:0.266724;stroke-linejoin:round;stroke-dashoffset:47.811;paint-order:stroke fill markers"
       d="m -200.40956,99.009244 -9.74226,16.276126 h 30.66108 c 4.55045,0 8.21344,-3.62977 8.21344,-8.13832 0,-4.50856 -3.66299,-8.137806 -8.21344,-8.137806 z" />
    <path
       id="rect1118-4"
       style="opacity:0.9994;fill:#d3bc5f;fill-opacity:1;fill-rule:evenodd;stroke:none;stroke-width:0.266724;stroke-linejoin:round;stroke-dashoffset:47.811;paint-order:stroke fill markers"
       d="m -121.8034,116.04249 c -3.28056,0 -5.92152,2.61663 -5.92152,5.86698 0,3.25035 2.64096,5.86698 5.92152,5.86698 h 47.705859 l -6.625601,-11.73396 z" />
    <path
       id="rect1120-1"
       style="opacity:0.9994;fill:#d3bc5f;fill-opacity:1;fill-rule:evenodd;stroke:none;stroke-width:0.266724;stroke-linejoin:round;stroke-dashoffset:47.811;paint-order:stroke fill markers"
       d="m -134.02824,67.591868 c -3.28056,0 -5.92151,2.616628 -5.92151,5.866987 v 1.892528 c 0,3.250349 2.64095,5.866977 5.92151,5.866977 h 33.64298 l -7.69372,-13.626492 z" />
    <rect
       style="opacity:0.9994;fill:#d3bc5f;fill-opacity:1;fill-rule:evenodd;stroke:none;stroke-width:0.266724;stroke-linejoin:round;stroke-dashoffset:47.811;paint-order:stroke fill markers"
       id="rect1122-4"
       width="36.293594"
       height="10.977075"
       x="-176.6256"
       y="83.111191"
       ry="5.4885378" />
    <path
       id="rect1124-4"
       style="opacity:0.9994;fill:#d3bc5f;fill-opacity:1;fill-rule:evenodd;stroke:none;stroke-width:0.266724;stroke-linejoin:round;stroke-dashoffset:47.811;paint-order:stroke fill markers"
       d="m -154.87183,22.926303 -6.34355,10.598553 h 11.71453 c 2.96309,0 5.34852,-2.363475 5.34852,-5.299272 0,-2.935807 -2.38543,-5.299281 -5.34852,-5.299281 z" />
    <path
       id="rect1126-0"
       style="opacity:0.9994;fill:#d3bc5f;fill-opacity:1;fill-rule:evenodd;stroke:none;stroke-width:0.266724;stroke-linejoin:round;stroke-dashoffset:47.811;paint-order:stroke fill markers"
       d="m -128.10673,41.09548 c -2.96308,0 -5.34852,2.363475 -5.34852,5.299281 v 0.757108 c 0,2.935807 2.38544,5.299281 5.34852,5.299281 h 11.47897 l -6.41196,-11.35567 z" />
    <rect
       style="opacity:0.9994;fill:#d3bc5f;fill-opacity:1;fill-rule:evenodd;stroke:none;stroke-width:0.266724;stroke-linejoin:round;stroke-dashoffset:47.811;paint-order:stroke fill markers"
       id="rect1128-1"
       width="29.798954"
       height="11.355595"
       x="-157.52371"
       y="116.42094"
       ry="5.2992783" />
    <rect
       style="opacity:0.9994;fill:#d3bc5f;fill-opacity:1;fill-rule:evenodd;stroke:none;stroke-width:0.266724;stroke-linejoin:round;stroke-dashoffset:47.811;paint-order:stroke fill markers"
       id="rect1130-1"
       width="30.180992"
       height="11.355602"
       x="-140.332"
       y="94.088249"
       ry="5.2992783" />
    <path
       id="rect1132-3"
       style="opacity:0.9994;fill:#d3bc5f;fill-opacity:1;fill-rule:evenodd;stroke:none;stroke-width:0.266724;stroke-linejoin:round;stroke-dashoffset:47.811;paint-order:stroke fill markers"
       d="m -177.52735,60.778371 -7.0001,11.695148 c 0.21091,0.02484 0.42511,0.03936 0.64297,0.03936 h 17.19208 c 2.96308,0 5.34854,-2.363485 5.34854,-5.299282 v -1.135931 c 0,-2.935797 -2.38546,-5.299272 -5.34854,-5.299272 z" />
    <rect
       style="opacity:0.9994;fill:#d3bc5f;fill-opacity:1;fill-rule:evenodd;stroke:none;stroke-width:0.266724;stroke-linejoin:round;stroke-dashoffset:47.811;paint-order:stroke fill markers"
       id="rect1134-9"
       width="24.45042"
       height="10.977082"
       x="-157.90576"
       y="41.47401"
       ry="5.4885411" />
    <path
       id="rect1136-7"
       style="opacity:0.9994;fill:#d3bc5f;fill-opacity:1;fill-rule:evenodd;stroke:none;stroke-width:0.266724;stroke-linejoin:round;stroke-dashoffset:47.811;paint-order:stroke fill markers"
       d="m -95.442562,99.76584 c -3.068918,0 -5.539708,2.44803 -5.539708,5.48868 v 0.37882 c 0,3.04065 2.47079,5.48817 5.539708,5.48817 h 11.941213 l -6.411969,-11.35567 z" />
    <path
       id="path1801"
       style="fill:#f4eed7;stroke:none;stroke-width:0.421629px;stroke-linecap:butt;stroke-linejoin:miter;stroke-opacity:1"
       d="m -144.18157,49.801475 c -3.89028,-0.02804 -7.78273,0.424489 -11.56566,1.324302 -4.684,1.11415 -9.19964,2.912854 -13.37133,5.299281 -2.47356,1.415003 -4.82502,3.037834 -7.0257,4.841795 -1.27326,3.483423 -1.60717,7.008016 -0.81115,10.490398 3.78253,2.94538 8.06059,5.267105 12.6124,6.811443 6.41682,2.177087 13.26884,2.813031 20.05281,2.836975 0.0911,1.2e-4 0.18215,9.41e-4 0.27316,10e-4 5.83192,0.007 11.71546,-0.434233 17.3049,-2.081419 4.77255,-1.40645 9.27098,-3.702238 13.22142,-6.70431 1.13668,-3.821569 0.89217,-7.705438 -0.44919,-11.545083 -1.26379,-1.123123 -2.59442,-2.172069 -3.98528,-3.136605 -4.22133,-2.927415 -8.97674,-5.079355 -13.94431,-6.435213 -3.9735,-1.084528 -8.08836,-1.66393 -12.20969,-1.702595 -0.0342,-9.1e-5 -0.0682,7e-5 -0.10238,0 z" />
    <rect
       style="opacity:0.9994;fill:#7c916f;fill-rule:evenodd;stroke:none;stroke-width:0.266724;stroke-linejoin:round;stroke-dashoffset:47.811;paint-order:stroke fill markers"
       id="rect1803"
       width="23.495327"
       height="22.900452"
       x="-156.32014"
       y="55.100243"
       ry="11.260966" />
    <rect
       style="opacity:0.9994;fill:#28220b;fill-rule:evenodd;stroke:none;stroke-width:0.266724;stroke-linejoin:round;stroke-dashoffset:47.811;paint-order:stroke fill markers"
       id="rect1805"
       width="16.809654"
       height="17.411919"
       x="-153.26382"
       y="57.939144"
       ry="8.3274317" />
    <path
       style="fill:#ffaaaa;stroke:#000000;stroke-width:0.28811px;stroke-linecap:butt;stroke-linejoin:miter;stroke-opacity:1"
       d="m -144.18158,46.751193 c 4.14429,0.04357 8.27884,0.729219 12.22521,1.995396 5.05972,1.623391 9.8076,4.20299 13.9444,7.538108 3.92483,3.16423 7.30087,7.007329 9.93299,11.307171 -4.62951,6.358645 -11.2669,11.23247 -18.71988,13.745994 -5.56928,1.878245 -11.50526,2.450676 -17.38272,2.438793 -6.87907,-0.01391 -13.83667,-0.832339 -20.24801,-3.325627 -7.02761,-2.732949 -13.25989,-7.477571 -17.76474,-13.524276 3.56029,-4.854712 7.97883,-9.078148 12.98927,-12.415723 4.10676,-2.735609 8.61865,-4.880816 13.37133,-6.207866 3.7866,-1.0573 7.72093,-1.593296 11.65215,-1.55197 z"
       id="path1807"
       inkscape:path-effect="#path-effect1809"
       inkscape:original-d="m -144.18158,46.751193 c 4.11483,0.06079 8.27929,0.639689 12.22521,1.995396 4.91667,1.689207 9.23286,3.769365 13.9444,7.538108 4.07835,3.262275 9.93299,11.307171 9.93299,11.307171 0,0 -11.76411,10.870253 -18.71988,13.745994 -5.49803,2.273064 -11.54659,2.507481 -17.38272,2.438793 -6.81622,-0.08022 -13.86971,-0.534448 -20.24801,-3.325627 -6.6264,-2.899755 -17.76474,-13.524276 -17.76474,-13.524276 0,0 4.71206,-6.798785 12.98927,-12.415723 4.33228,-2.939903 8.71702,-4.843557 13.37133,-6.207866 3.79052,-1.111116 7.74294,-1.609713 11.65215,-1.55197 z"
       sodipodi:nodetypes="aascaaacsaa" />
    <path
       style="fill:#ff5555;stroke:#000000;stroke-width:0.266191px;stroke-linecap:butt;stroke-linejoin:miter;stroke-opacity:1"
       d="m -144.18157,49.801445 c 4.12564,0.03736 8.24492,0.61724 12.22521,1.703336 4.96251,1.354114 9.71808,3.502523 13.94439,6.434833 3.81034,2.643694 7.18117,5.919258 9.93299,9.652254 -5.01651,5.517064 -11.56798,9.623709 -18.71987,11.734124 -5.61685,1.657448 -11.52644,2.092452 -17.38272,2.08185 -6.84598,-0.01239 -13.7658,-0.63689 -20.248,-2.838888 -6.7564,-2.295144 -12.9234,-6.302924 -17.76475,-11.544862 3.70904,-4.2136 8.11715,-7.810384 12.98927,-10.598553 4.17542,-2.389472 8.69107,-4.186197 13.37133,-5.299282 3.81234,-0.906672 7.73364,-1.360296 11.65215,-1.324812 z"
       id="path1811"
       inkscape:path-effect="#path-effect1813"
       inkscape:original-d="m -144.18157,49.801445 c 4.11483,0.05187 8.27929,0.546054 12.22521,1.703336 4.91667,1.441981 9.23286,3.217682 13.94439,6.434833 4.07835,2.78481 9.93299,9.652254 9.93299,9.652254 0,0 -11.7641,9.279278 -18.71987,11.734124 -5.49803,1.940377 -11.54659,2.140484 -17.38272,2.08185 -6.81622,-0.0685 -13.86971,-0.456225 -20.248,-2.838888 -6.62641,-2.475345 -17.76475,-11.544862 -17.76475,-11.544862 0,0 4.71206,-5.803706 12.98927,-10.598553 4.33228,-2.509615 8.71702,-4.134639 13.37133,-5.299282 3.79052,-0.948492 7.74294,-1.374113 11.65215,-1.324812 z"
       sodipodi:nodetypes="aascaaacsaa" />
    <path
       id="path1815"
       style="fill:#f4eed7;stroke:none;stroke-width:0.421629px;stroke-linecap:butt;stroke-linejoin:miter;stroke-opacity:1"
       d="m -144.18157,49.801475 c -3.89028,-0.02804 -7.78273,0.424489 -11.56566,1.324302 -4.684,1.11415 -9.19964,2.912854 -13.37133,5.299281 -2.47356,1.415003 -4.82502,3.037834 -7.0257,4.841795 -1.27326,3.483423 -1.60717,7.008016 -0.81115,10.490398 3.78253,2.94538 8.06059,5.267105 12.6124,6.811443 6.41682,2.177087 13.26884,2.813031 20.05281,2.836975 0.0911,1.2e-4 0.18215,9.41e-4 0.27316,10e-4 5.83192,0.007 11.71546,-0.434233 17.3049,-2.081419 4.77255,-1.40645 9.27098,-3.702238 13.22142,-6.70431 1.13668,-3.821569 0.89217,-7.705438 -0.44919,-11.545083 -1.26379,-1.123123 -2.59442,-2.172069 -3.98528,-3.136605 -4.22133,-2.927415 -8.97674,-5.079355 -13.94431,-6.435213 -3.9735,-1.084528 -8.08836,-1.66393 -12.20969,-1.702595 -0.0342,-9.1e-5 -0.0682,7e-5 -0.10238,0 z" />
    <rect
       style="opacity:0.9994;fill:#7c916f;fill-rule:evenodd;stroke:none;stroke-width:0.266724;stroke-linejoin:round;stroke-dashoffset:47.811;paint-order:stroke fill markers"
       id="rect1817"
       width="23.495327"
       height="22.900452"
       x="-156.32014"
       y="55.100243"
       ry="11.260966" />
    <rect
       style="opacity:0.9994;fill:#28220b;fill-rule:evenodd;stroke:none;stroke-width:0.266724;stroke-linejoin:round;stroke-dashoffset:47.811;paint-order:stroke fill markers"
       id="rect1819"
       width="16.809654"
       height="17.411919"
       x="-153.26382"
       y="57.939144"
       ry="8.3274317" />
    <path
       style="fill:url(#radialGradient1843);fill-opacity:1;stroke:none;stroke-width:0.264319;stroke-linecap:butt;stroke-linejoin:miter;stroke-miterlimit:4;stroke-dasharray:none;stroke-opacity:1"
       d="M -220.88081,133.13522 -143.75077,3.4170833 -70.779726,133.51231 Z"
       id="path1821"
       sodipodi:nodetypes="cccc" />
    <path
       id="path1823"
       style="fill:#f4eed7;stroke:none;stroke-width:0.421629px;stroke-linecap:butt;stroke-linejoin:miter;stroke-opacity:1"
       d="m -144.18157,49.801475 c -3.89028,-0.02804 -7.78273,0.424489 -11.56566,1.324302 -4.684,1.11415 -9.19964,2.912854 -13.37133,5.299281 -2.47356,1.415003 -4.82502,3.037834 -7.0257,4.841795 -1.27326,3.483423 -1.60717,7.008016 -0.81115,10.490398 3.78253,2.94538 8.06059,5.267105 12.6124,6.811443 6.41682,2.177087 13.26884,2.813031 20.05281,2.836975 0.0911,1.2e-4 0.18215,9.41e-4 0.27316,10e-4 5.83192,0.007 11.71546,-0.434233 17.3049,-2.081419 4.77255,-1.40645 9.27098,-3.702238 13.22142,-6.70431 1.13668,-3.821569 0.89217,-7.705438 -0.44919,-11.545083 -1.26379,-1.123123 -2.59442,-2.172069 -3.98528,-3.136605 -4.22133,-2.927415 -8.97674,-5.079355 -13.94431,-6.435213 -3.9735,-1.084528 -8.08836,-1.66393 -12.20969,-1.702595 -0.0342,-9.1e-5 -0.0682,7e-5 -0.10238,0 z" />
    <rect
       style="opacity:0.9994;fill:#7c916f;fill-rule:evenodd;stroke:none;stroke-width:0.266724;stroke-linejoin:round;stroke-dashoffset:47.811;paint-order:stroke fill markers"
       id="rect1825"
       width="23.495327"
       height="22.900452"
       x="-156.32014"
       y="55.100243"
       ry="11.260966" />
    <rect
       style="opacity:0.9994;fill:#28220b;fill-rule:evenodd;stroke:none;stroke-width:0.266724;stroke-linejoin:round;stroke-dashoffset:47.811;paint-order:stroke fill markers"
       id="rect1827"
       width="16.809654"
       height="17.411919"
       x="-153.26382"
       y="57.939144"
       ry="8.3274317" />
    <path
       style="fill:#ffaaaa;stroke:#000000;stroke-width:1.13479793;stroke-linecap:butt;stroke-linejoin:miter;stroke-opacity:1;stroke-miterlimit:4;stroke-dasharray:none"
       d="m -144.18158,46.751193 c 4.14429,0.04357 8.27884,0.729219 12.22521,1.995396 5.05972,1.623391 9.8076,4.20299 13.9444,7.538108 3.92483,3.16423 7.30087,7.007329 9.93299,11.307171 -4.62951,6.358645 -11.2669,11.23247 -18.71988,13.745994 -5.56928,1.878245 -11.50526,2.450676 -17.38272,2.438793 -6.87907,-0.01391 -13.83667,-0.832339 -20.24801,-3.325627 -7.02761,-2.732949 -13.25989,-7.477571 -17.76474,-13.524276 3.56029,-4.854712 7.97883,-9.078148 12.98927,-12.415723 4.10676,-2.735609 8.61865,-4.880816 13.37133,-6.207866 3.7866,-1.0573 7.72093,-1.593296 11.65215,-1.55197 z"
       id="path1829"
       inkscape:path-effect="#path-effect1831"
       inkscape:original-d="m -144.18158,46.751193 c 4.11483,0.06079 8.27929,0.639689 12.22521,1.995396 4.91667,1.689207 9.23286,3.769365 13.9444,7.538108 4.07835,3.262275 9.93299,11.307171 9.93299,11.307171 0,0 -11.76411,10.870253 -18.71988,13.745994 -5.49803,2.273064 -11.54659,2.507481 -17.38272,2.438793 -6.81622,-0.08022 -13.86971,-0.534448 -20.24801,-3.325627 -6.6264,-2.899755 -17.76474,-13.524276 -17.76474,-13.524276 0,0 4.71206,-6.798785 12.98927,-12.415723 4.33228,-2.939903 8.71702,-4.843557 13.37133,-6.207866 3.79052,-1.111116 7.74294,-1.609713 11.65215,-1.55197 z"
       sodipodi:nodetypes="aascaaacsaa" />
    <path
       style="fill:#ff5555;stroke:#000000;stroke-width:0.266191px;stroke-linecap:butt;stroke-linejoin:miter;stroke-opacity:1"
       d="m -144.18157,49.801445 c 4.12564,0.03736 8.24492,0.61724 12.22521,1.703336 4.96251,1.354114 9.71808,3.502523 13.94439,6.434833 3.81034,2.643694 7.18117,5.919258 9.93299,9.652254 -5.01651,5.517064 -11.56798,9.623709 -18.71987,11.734124 -5.61685,1.657448 -11.52644,2.092452 -17.38272,2.08185 -6.84598,-0.01239 -13.7658,-0.63689 -20.248,-2.838888 -6.7564,-2.295144 -12.9234,-6.302924 -17.76475,-11.544862 3.70904,-4.2136 8.11715,-7.810384 12.98927,-10.598553 4.17542,-2.389472 8.69107,-4.186197 13.37133,-5.299282 3.81234,-0.906672 7.73364,-1.360296 11.65215,-1.324812 z"
       id="path1833"
       inkscape:path-effect="#path-effect1835"
       inkscape:original-d="m -144.18157,49.801445 c 4.11483,0.05187 8.27929,0.546054 12.22521,1.703336 4.91667,1.441981 9.23286,3.217682 13.94439,6.434833 4.07835,2.78481 9.93299,9.652254 9.93299,9.652254 0,0 -11.7641,9.279278 -18.71987,11.734124 -5.49803,1.940377 -11.54659,2.140484 -17.38272,2.08185 -6.81622,-0.0685 -13.86971,-0.456225 -20.248,-2.838888 -6.62641,-2.475345 -17.76475,-11.544862 -17.76475,-11.544862 0,0 4.71206,-5.803706 12.98927,-10.598553 4.33228,-2.509615 8.71702,-4.134639 13.37133,-5.299282 3.79052,-0.948492 7.74294,-1.374113 11.65215,-1.324812 z"
       sodipodi:nodetypes="aascaaacsaa" />
    <path
       id="path1837"
       style="fill:#f4eed7;stroke:none;stroke-width:0.421629px;stroke-linecap:butt;stroke-linejoin:miter;stroke-opacity:1"
       d="m -144.18157,49.801475 c -3.89028,-0.02804 -7.78273,0.424489 -11.56566,1.324302 -4.684,1.11415 -9.19964,2.912854 -13.37133,5.299281 -2.47356,1.415003 -4.82502,3.037834 -7.0257,4.841795 -1.27326,3.483423 -1.60717,7.008016 -0.81115,10.490398 3.78253,2.94538 8.06059,5.267105 12.6124,6.811443 6.41682,2.177087 13.26884,2.813031 20.05281,2.836975 0.0911,1.2e-4 0.18215,9.41e-4 0.27316,10e-4 5.83192,0.007 11.71546,-0.434233 17.3049,-2.081419 4.77255,-1.40645 9.27098,-3.702238 13.22142,-6.70431 1.13668,-3.821569 0.89217,-7.705438 -0.44919,-11.545083 -1.26379,-1.123123 -2.59442,-2.172069 -3.98528,-3.136605 -4.22133,-2.927415 -8.97674,-5.079355 -13.94431,-6.435213 -3.9735,-1.084528 -8.08836,-1.66393 -12.20969,-1.702595 -0.0342,-9.1e-5 -0.0682,7e-5 -0.10238,0 z" />
    <rect
       style="opacity:0.9994;fill:#7c916f;fill-rule:evenodd;stroke:none;stroke-width:0.266724;stroke-linejoin:round;stroke-dashoffset:47.811;paint-order:stroke fill markers"
       id="rect1839"
       width="23.495327"
       height="22.900452"
       x="-156.32014"
       y="55.100243"
       ry="11.260966" />
    <rect
       style="opacity:0.9994;fill:#28220b;fill-rule:evenodd;stroke:none;stroke-width:0.266724;stroke-linejoin:round;stroke-dashoffset:47.811;paint-order:stroke fill markers"
       id="rect1841"
       width="16.809654"
       height="17.411919"
       x="-153.26382"
       y="57.939144"
       ry="8.3274317" />
    <path
       style="fill:none;stroke:#ff0000;stroke-width:0.264583px;stroke-linecap:butt;stroke-linejoin:miter;stroke-opacity:1;opacity:1"
       d="m -128.85639,52.427375 c -0.0461,0.392888 -0.19788,0.772872 -0.43523,1.089335 -0.23735,0.316464 -0.55963,0.568605 -0.9239,0.722836 -0.29706,0.125775 -0.62159,0.188058 -0.90107,0.349165 -0.13975,0.08055 -0.26739,0.186731 -0.3548,0.322294 -0.0874,0.135563 -0.1319,0.302415 -0.10326,0.461148 0.007,0.0382 0.0179,0.07572 0.0216,0.114358 0.004,0.03863 -4.6e-4,0.07963 -0.0216,0.112163 -0.011,0.01685 -0.0262,0.03081 -0.0434,0.04115 -0.0172,0.01033 -0.0365,0.01709 -0.0563,0.02071 -0.0396,0.0073 -0.0805,0.0021 -0.11947,-0.0078 -0.039,-0.0098 -0.0767,-0.02423 -0.1152,-0.03577 -0.0385,-0.01154 -0.0785,-0.02029 -0.11865,-0.01833 -0.0575,0.0028 -0.11349,0.02846 -0.15317,0.07011 -0.0397,0.04166 -0.0626,0.09888 -0.0626,0.156406 0,0.05753 0.0229,0.114747 0.0626,0.156407 0.0397,0.04166 0.0957,0.06731 0.15317,0.07011"
       id="path908"
       inkscape:path-effect="#path-effect910"
       inkscape:original-d="m -128.85639,52.427375 c -2.77423,2.774223 0.57306,-0.764077 -1.35913,1.812171 -0.11128,0.148376 -1.23622,0.886783 -1.35913,1.132607 -0.0338,0.06753 0.0534,0.17313 0,0.226521 -0.10678,0.106783 -0.34626,-0.106783 -0.45304,0 -0.10679,0.106783 0,0.30203 0,0.453043" />
    <path
       style="fill:none;stroke:#ff0000;stroke-width:0.264583px;stroke-linecap:butt;stroke-linejoin:miter;stroke-opacity:1"
       d="m -163.74068,57.410845 c -0.16752,0.273602 -0.25938,0.593012 -0.2628,0.913808 -0.003,0.320797 0.0816,0.642093 0.24325,0.919206 0.16165,0.277113 0.39947,0.509276 0.6804,0.664203 0.28093,0.154927 0.60418,0.232189 0.9248,0.221041 0.55167,-0.01918 1.05855,-0.289139 1.58565,-0.453044 0.22144,-0.06886 0.45003,-0.119554 0.68179,-0.127335 0.23177,-0.0078 0.46748,0.02866 0.67733,0.127335 0.35558,0.167203 0.61861,0.517909 0.67957,0.906084"
       id="path920"
       inkscape:path-effect="#path-effect923"
       inkscape:original-d="m -163.74068,57.410845 c 0.52855,0.906087 0.87415,1.947463 1.58565,2.718258 1.1041,1.196109 1.24458,-0.111977 1.58565,-0.453044 0.0559,-0.05589 1.30324,-0.05589 1.35912,0 0.22267,0.222666 0.41013,0.906084 0.67957,0.906084" />
    <path
       style="fill:none;stroke:#ff0000;stroke-width:0.264583px;stroke-linecap:butt;stroke-linejoin:miter;stroke-opacity:1"
       d="m -161.24895,77.118203 c 0.25723,-0.224359 0.57227,-0.381877 0.90609,-0.453044 0.36667,-0.07817 0.74797,-0.05302 1.11818,-0.112146 0.18511,-0.02956 0.36863,-0.08095 0.53208,-0.172724 0.16345,-0.09177 0.30635,-0.226167 0.38843,-0.394694 0.0373,-0.07654 0.0616,-0.158654 0.093,-0.237777 0.0314,-0.07912 0.0714,-0.157079 0.13353,-0.215263 0.062,-0.058 0.14184,-0.09258 0.22121,-0.122646 0.0794,-0.03006 0.16094,-0.0572 0.23183,-0.103877 0.0943,-0.06212 0.16508,-0.1569 0.20639,-0.26203 0.0413,-0.105129 0.0541,-0.220192 0.0463,-0.332872 -0.0157,-0.225361 -0.11101,-0.436626 -0.20853,-0.640403 -0.0975,-0.203777 -0.20008,-0.410107 -0.23205,-0.63374 -0.016,-0.111816 -0.0136,-0.227138 0.016,-0.33613 0.0297,-0.108992 0.0875,-0.211463 0.17188,-0.28656 0.0925,-0.08237 0.21589,-0.129312 0.33979,-0.129312 0.12389,0 0.24723,0.04694 0.33978,0.129312"
       id="path925"
       inkscape:path-effect="#path-effect927"
       inkscape:original-d="m -161.24895,77.118203 c 0.30203,-0.151014 0.58874,-0.337643 0.90609,-0.453044 0.67319,-0.244798 1.53217,-0.173045 2.03869,-0.679564 0.46868,-0.46868 -0.71621,0.01834 0.22652,-0.45304 0.31246,-0.156229 0.20262,0.274327 0.45304,-0.226523 0.27184,-0.543677 -0.40893,-2.082795 0,-2.491735 0.16018,-0.160174 0.45305,0 0.67957,0" />
    <path
       style="fill:none;stroke:#ff0000;stroke-width:0.264583px;stroke-linecap:butt;stroke-linejoin:miter;stroke-opacity:1"
       d="m -133.1603,76.438639 c 0.50213,-0.191713 1.08735,-0.15226 1.55921,0.105113 0.47185,0.257373 0.82186,0.728051 0.93253,1.254014 0.0323,0.153502 0.0451,0.310422 0.0721,0.464949 0.027,0.154527 0.0693,0.309363 0.15443,0.441138 0.0584,0.09038 0.13614,0.168155 0.22652,0.22652"
       id="path929"
       inkscape:path-effect="#path-effect931"
       inkscape:original-d="m -133.1603,76.438639 c 0.51096,2.409573 1.89707,0.764466 2.49174,1.359127 0.1485,0.148503 0.11303,0.792599 0.22652,0.906087 0.30203,0.302027 0.22652,-0.377537 0.22652,0.22652" />
    <path
       style="fill:none;stroke:#ff0000;stroke-width:0.264583px;stroke-linecap:butt;stroke-linejoin:miter;stroke-opacity:1"
       d="m -124.23591,66.864394 c 0.20044,-0.01591 0.39653,-0.08386 0.56383,-0.195395 0.1673,-0.111534 0.30544,-0.266401 0.39722,-0.445304 0.0546,-0.106343 0.0933,-0.221322 0.16018,-0.320349 0.0598,-0.08843 0.1417,-0.162263 0.23746,-0.209385 0.0958,-0.04712 0.20527,-0.06701 0.31109,-0.05313 0.10581,0.01389 0.20739,0.06203 0.28274,0.137615 0.0754,0.07558 0.12348,0.178528 0.12976,0.285069 0.003,0.05353 -0.004,0.107057 -0.008,0.160508 -0.004,0.05345 -0.006,0.108078 0.008,0.159842 0.0233,0.08625 0.088,0.156579 0.1629,0.205359 0.0749,0.04878 0.1601,0.07879 0.24416,0.109093 0.0841,0.0303 0.16893,0.06187 0.24207,0.113204 0.0366,0.02567 0.07,0.05622 0.0966,0.09208 0.0266,0.03586 0.0465,0.07713 0.0551,0.120964 0.0104,0.0526 0.005,0.106884 -8.8e-4,0.16022 -0.006,0.05334 -0.0107,0.10777 8.8e-4,0.160129 0.0175,0.07922 0.0736,0.147387 0.14442,0.186901 0.0709,0.03951 0.15514,0.05168 0.23568,0.04194 0.0805,-0.0097 0.15756,-0.04045 0.2274,-0.08172 0.0699,-0.04126 0.13298,-0.09295 0.19337,-0.147125 0.16654,-0.149406 0.31504,-0.319792 0.49561,-0.451893 0.0903,-0.06605 0.18862,-0.122261 0.29476,-0.1576 0.10614,-0.03534 0.22047,-0.04929 0.33086,-0.03121 0.0268,0.0044 0.0534,0.01067 0.0806,0.01269 0.0271,0.002 0.0553,-4.53e-4 0.0796,-0.01269 0.0193,-0.0097 0.0353,-0.02527 0.0467,-0.04356 0.0114,-0.01829 0.0183,-0.03923 0.0213,-0.06059 0.006,-0.04272 -0.004,-0.08617 -0.0173,-0.12706 -0.0137,-0.04089 -0.0318,-0.0803 -0.0439,-0.121705 -0.0121,-0.04141 -0.018,-0.08592 -0.007,-0.127604 0.01,-0.0373 0.0333,-0.07054 0.064,-0.09396 0.0307,-0.02343 0.0683,-0.03719 0.10669,-0.04104 0.0768,-0.0077 0.15381,0.02401 0.21347,0.07298 0.0597,0.04897 0.10399,0.114005 0.14238,0.180971 0.0384,0.06697 0.0718,0.136896 0.11414,0.2014 0.13435,0.204418 0.361,0.345533 0.60373,0.375873 0.24272,0.03034 0.49714,-0.05064 0.67767,-0.2157"
       id="path933"
       inkscape:original-d="m -124.23591,66.864394 c 0.9919,-1.32253 -0.0356,-0.308485 0.96105,-0.640699 0.11326,-0.03775 0.0534,-0.266959 0.16018,-0.320349 0.18472,-0.09236 0.95159,0.150722 0.96105,0.160173 0.0755,0.07551 -0.0338,0.219046 0,0.32035 0.0345,0.103571 0.72519,0.565023 0.80087,0.640699 0.0755,0.07551 -0.0955,0.272595 0,0.320349 0.14516,0.07258 0.61736,0 0.80087,0 1.32582,0 0.54556,-0.06503 1.12123,-0.640699 0.0378,-0.03775 0.12242,0.03775 0.16017,0 0.11326,-0.11326 -0.0716,-0.337259 0,-0.480523 0.0458,-0.09157 0.61686,0.314389 0.6407,0.32035 0.43353,0.108381 0.81464,0.160173 1.2814,0.160173"
       inkscape:path-effect="#path-effect935" />
    <path
       style="fill:none;stroke:#ff0000;stroke-width:0.264583px;stroke-linecap:butt;stroke-linejoin:miter;stroke-opacity:1"
       d="m -120.39171,71.989987 c 0.14328,-0.193281 0.3677,-0.324352 0.60644,-0.354195 0.23874,-0.02984 0.48851,0.04196 0.67496,0.194019 0.17593,0.143485 0.29396,0.351159 0.48052,0.480526 0.11709,0.0812 0.25848,0.127651 0.40096,0.128668 0.14249,0.001 0.2854,-0.04388 0.39992,-0.128668 0.10785,-0.07984 0.1878,-0.191279 0.25897,-0.305031 0.0712,-0.113753 0.1359,-0.232372 0.22155,-0.335668 0.19446,-0.234529 0.49621,-0.376314 0.80087,-0.376314 0.30467,0 0.60642,0.141785 0.80088,0.376314"
       id="path941"
       inkscape:path-effect="#path-effect943"
       inkscape:original-d="m -120.39171,71.989987 c 0.43874,-0.186153 0.8318,-0.160176 1.2814,-0.160176 0.37033,0 0.32068,0.320686 0.48052,0.480526 0.0325,0.03247 0.76841,0.03247 0.80088,0 0.15981,-0.159816 0.24445,-0.522666 0.48052,-0.640699 0.31391,-0.156956 1.23511,0 1.60175,0" />
  </g>
</svg>
