<?xml version="1.0" encoding="UTF-8" standalone="no"?>
<svg
   xmlns:dc="http://purl.org/dc/elements/1.1/"
   xmlns:cc="http://creativecommons.org/ns#"
   xmlns:rdf="http://www.w3.org/1999/02/22-rdf-syntax-ns#"
   xmlns:svg="http://www.w3.org/2000/svg"
   xmlns="http://www.w3.org/2000/svg"
   xmlns:sodipodi="http://sodipodi.sourceforge.net/DTD/sodipodi-0.dtd"
   xmlns:inkscape="http://www.inkscape.org/namespaces/inkscape"
   width="600"
   height="600"
   viewBox="0 0 158.74999 158.75"
   version="1.1"
   id="svg8"
   inkscape:version="1.0.2 (e86c870879, 2021-01-15, custom)"
   sodipodi:docname="pink_system.svg">
  <defs
     id="defs2">
    <inkscape:path-effect
       effect="spiro"
       id="path-effect952"
       is_visible="true"
       lpeversion="1" />
    <inkscape:path-effect
       effect="spiro"
       id="path-effect934"
       is_visible="true"
       lpeversion="1" />
    <inkscape:path-effect
       effect="spiro"
       id="path-effect916"
       is_visible="true"
       lpeversion="1" />
    <inkscape:path-effect
       effect="spiro"
       id="path-effect909"
       is_visible="true"
       lpeversion="1" />
    <inkscape:path-effect
       effect="spiro"
       id="path-effect900"
       is_visible="true"
       lpeversion="1" />
    <inkscape:path-effect
       effect="spiro"
       id="path-effect839"
       is_visible="true"
       lpeversion="1" />
  </defs>
  <sodipodi:namedview
     id="base"
     pagecolor="#283746"
     bordercolor="#666666"
     borderopacity="1.0"
     inkscape:pageopacity="0"
     inkscape:pageshadow="2"
     inkscape:zoom="0.49497475"
     inkscape:cx="604.67514"
     inkscape:cy="358.78132"
     inkscape:document-units="px"
     inkscape:current-layer="layer1"
     inkscape:document-rotation="0"
     showgrid="false"
     units="px"
     inkscape:window-width="1566"
     inkscape:window-height="1033"
     inkscape:window-x="64"
     inkscape:window-y="0"
     inkscape:window-maximized="0"
     inkscape:snap-global="false" />
  <metadata
     id="metadata5">
    <rdf:RDF>
      <cc:Work
         rdf:about="">
        <dc:format>image/svg+xml</dc:format>
        <dc:type
           rdf:resource="http://purl.org/dc/dcmitype/StillImage" />
        <dc:title />
      </cc:Work>
    </rdf:RDF>
  </metadata>
  <g
     inkscape:label="Layer 1"
     inkscape:groupmode="layer"
     id="layer1">
    <rect
       style="opacity:0.9994;fill:#6b666d;fill-opacity:1;fill-rule:evenodd;stroke-width:0.691991;stroke-linejoin:round;stroke-dashoffset:47.811;paint-order:stroke fill markers"
       id="rect848-1"
       width="98.510956"
       height="98.510956"
       x="11.681979"
       y="42.685238"
       ry="49.255478" />
    <rect
       style="opacity:0.9994;fill:#ffaaaa;fill-opacity:1;fill-rule:evenodd;stroke-width:0.631913;stroke-linejoin:round;stroke-dashoffset:47.811;paint-order:stroke fill markers"
       id="rect848"
       width="89.958328"
       height="89.958328"
       x="16.036171"
       y="47.03944"
       ry="44.979164" />
    <path
       style="fill:#ffccaa;fill-opacity:1;stroke:none;stroke-width:0.137959px;stroke-linecap:butt;stroke-linejoin:miter;stroke-opacity:1"
       d="m 44.940378,63.198661 c 1.217037,-0.117427 2.447827,-0.111186 3.652159,-0.322262 1.204332,-0.211076 2.411927,-0.667147 3.252522,-1.555048 0.545894,-0.576615 0.913553,-1.320344 1.036818,-2.104748 0.123264,-0.784405 0.0011,-1.606088 -0.34816,-2.31919 -0.349242,-0.713102 -0.924375,-1.314039 -1.623104,-1.691216 -0.698728,-0.377176 -1.517827,-0.528238 -2.304683,-0.421736 -0.761336,0.103048 -1.479189,0.440348 -2.096031,0.898341 -0.616843,0.457993 -1.137972,1.03399 -1.600925,1.647119 -0.925907,1.226257 -1.635954,2.61507 -2.663149,3.757821 -1.582813,1.760874 -3.79481,2.806904 -5.975391,3.729421 -2.180582,0.922518 -4.435598,1.79222 -6.251465,3.311629 -0.907934,0.759704 -1.694401,1.680573 -2.209554,2.746458 -0.515153,1.065885 -0.748984,2.282174 -0.56346,3.451394 0.185523,1.16922 0.809314,2.281722 1.771344,2.971643 0.481016,0.344961 1.040612,0.582211 1.625199,0.675114 0.584587,0.0929 1.193378,0.04006 1.74883,-0.164504 0.599094,-0.220637 1.128056,-0.613894 1.543795,-1.098409 0.415739,-0.484515 0.720854,-1.058282 0.929858,-1.661532 0.62495,-1.803799 0.392486,-3.807472 0.939356,-5.636457 0.560083,-1.873175 1.9261,-3.446956 3.587719,-4.477247 1.661619,-1.030292 3.602244,-1.548821 5.548322,-1.736591 z"
       id="path914"
       sodipodi:nodetypes="sassssas"
       inkscape:original-d="m 44.940378,63.198661 c 2.342313,-1.029183 5.92639,0.297941 6.904681,-1.87731 0.997441,-2.21783 -0.704893,-5.446945 -3.239129,-6.53689 -2.534232,-1.089947 -3.864793,2.833112 -6.360105,6.303281 -2.495298,3.470154 -7.2955,15.389994 -9.854497,16.721155 -2.558996,1.331163 -0.289694,-4.486651 2.473653,-2.759941 2.763333,1.726699 -0.08742,-4.032173 0.939356,-5.636457 1.985376,-3.102035 9.136041,-6.213838 9.136041,-6.213838 z"
       inkscape:path-effect="#path-effect916" />
    <path
       id="path930"
       style="fill:#ffccaa;stroke:none;stroke-width:0.137959px;stroke-linecap:butt;stroke-linejoin:miter;stroke-opacity:1"
       d="m 65.130655,69.914845 c -2.29397,0.0522 -4.53864,0.87251 -6.51662,2.07102 -2.10986,1.27841 -3.94604,2.97449 -5.68991,4.73638 -1.74388,1.76189 -3.41441,3.60442 -5.27256,5.24005 -1.85814,1.63562 -3.927259,3.0722 -6.248599,3.88313 -2.7914,0.97515 -5.843816,1.00156 -8.741009,0.43261 -2.897194,-0.56895 -5.658185,-1.71227 -8.309252,-3.03398 -2.171287,-1.08251 -4.299926,-2.29383 -6.451818,-3.43719 a 44.863389,45.004119 0 0 0 -1.8553,12.98536 44.863389,45.004119 0 0 0 13.00524,31.511035 c 1.93671,-1.47987 3.729249,-3.15564 5.32989,-5.00345 1.905703,-2.19999 3.560372,-4.62501 5.572039,-6.72437 2.01166,-2.09936 4.47202,-3.89974 7.301989,-4.4271 2.51926,-0.46946 5.09778,0.10167 7.61108,0.60331 2.51331,0.50165 5.14646,0.93079 7.60335,0.1933 1.55116,-0.46561 2.94583,-1.37795 4.1637,-2.46361 1.21786,-1.08566 2.27298,-2.34588 3.31538,-3.60762 1.0424,-1.26173 2.08087,-2.53436 3.27164,-3.650885 1.19077,-1.11654 2.54752,-2.07972 4.07382,-2.62425 2.57802,-0.91973 5.47478,-0.56868 7.99537,0.50422 2.52059,1.0729 4.711062,2.81883 6.723032,4.703955 2.01197,1.88515 3.88024,3.92998 5.95766,5.73963 1.27371,1.10954 2.640943,2.1349 4.111693,2.94469 a 44.863389,45.004119 0 0 0 3.6906,-17.874995 l -0.002,-0.35284 a 44.863389,45.004119 0 0 0 -0.15814,-3.43883 c -0.92438,0.16367 -1.84367,0.36234 -2.76015,0.5671 -3.536343,0.79011 -7.205873,1.66022 -10.734443,0.83473 -2.77177,-0.64844 -5.233002,-2.31022 -7.299342,-4.30459 -2.06633,-1.99436 -3.78498,-4.32657 -5.5507,-6.60212 -1.76572,-2.27555 -3.6084,-4.52567 -5.86219,-6.29584 -2.25377,-1.77018 -4.9727,-3.04466 -7.81562,-3.10885 -0.15331,-0.003 -0.30656,-0.003 -0.45949,0 z" />
    <path
       style="fill:#ffccaa;stroke:none;stroke-width:0.137959px;stroke-linecap:butt;stroke-linejoin:miter;stroke-opacity:1"
       d="m 51.367189,113.70258 c -2.140622,-0.17189 -4.371669,0.24716 -6.154733,1.44402 -0.891532,0.59844 -1.660808,1.38554 -2.205511,2.31087 -0.544704,0.92534 -0.86093,1.98953 -0.871455,3.06323 -0.01502,1.5323 0.611222,3.05928 1.691538,4.14607 1.080316,1.08678 2.599801,1.72152 4.132118,1.73504 1.938524,0.0171 3.758048,-0.90643 5.387062,-1.95738 1.629013,-1.05094 3.182976,-2.2647 4.996035,-2.95099 1.749722,-0.66231 3.647613,-0.79738 5.514155,-0.92467 1.866543,-0.12728 3.764273,-0.25993 5.51562,-0.91794 0.875673,-0.329 1.707749,-0.79015 2.408263,-1.41009 0.700514,-0.61994 1.266466,-1.40295 1.574022,-2.28639 0.307556,-0.88343 0.347516,-1.86832 0.05097,-2.75551 -0.296551,-0.88719 -0.94031,-1.6653 -1.78491,-2.06742 -0.778274,-0.37054 -1.686438,-0.41139 -2.5292,-0.23038 -0.842761,0.181 -1.627558,0.57173 -2.356493,1.0318 -1.457868,0.92014 -2.753164,2.14124 -4.371085,2.73652 -1.748832,0.64345 -3.690096,0.48323 -5.516976,0.11587 -1.82688,-0.36736 -3.621946,-0.9335 -5.479416,-1.08265 z"
       id="path932"
       sodipodi:nodetypes="sssssss"
       inkscape:original-d="m 51.367189,113.70258 c -2.557303,0.0764 -5.276948,3.66194 -9.231699,6.81812 -3.954753,3.15619 3.882536,3.92091 5.823656,5.88111 1.941119,1.9602 6.769212,-2.62616 10.383097,-4.90837 3.613872,-2.2822 10.406755,-10.08682 13.278116,-10.36202 2.871361,-0.27521 -7.341864,6.17436 -9.256778,3.53794 -1.914906,-2.63641 -8.43909,-1.04322 -10.996392,-0.96678 z"
       inkscape:path-effect="#path-effect934" />
    <rect
       style="opacity:0.9994;fill:#b3b3b3;fill-opacity:0.51417;fill-rule:evenodd;stroke:none;stroke-width:0.259017;stroke-linejoin:round;stroke-miterlimit:4;stroke-dasharray:none;stroke-dashoffset:47.811;paint-order:stroke fill markers"
       id="rect944"
       width="47.625"
       height="47.625"
       x="102.80952"
       y="16.630951"
       ry="23.8125" />
    <path
       id="path950"
       style="fill:#999999;stroke:none;stroke-width:0.264583px;stroke-linecap:butt;stroke-linejoin:miter;stroke-opacity:1"
       d="m 126.628,17.650454 c -0.0694,0.0021 -0.13865,0.0064 -0.20773,0.01395 -0.55265,0.0601 -1.08532,0.296466 -1.49914,0.66766 -0.4765,0.427424 -0.78236,1.011979 -1.01803,1.607135 -0.23566,0.595159 -0.41157,1.214321 -0.68264,1.794206 -0.80591,1.724014 -2.41994,2.984174 -4.20181,3.652491 -1.78187,0.668316 -3.72555,0.794311 -5.62601,0.694531 -1.76745,-0.0928 -3.52768,-0.373031 -5.28547,-0.643372 -1.53746,1.897073 -2.78844,4.036179 -3.68763,6.354136 1.01405,-1.160256 2.46393,-1.898304 3.97805,-2.187464 1.52708,-0.291634 3.11608,-0.147873 4.61729,0.256315 1.55015,0.417362 3.01844,1.106503 4.57647,1.493449 0.77901,0.193471 1.58252,0.310361 2.38435,0.273367 0.80182,-0.03699 1.60387,-0.232714 2.2996,-0.633037 1.08838,-0.626258 1.84133,-1.700289 2.45153,-2.797759 0.61019,-1.097471 1.12019,-2.261241 1.89497,-3.249414 0.52622,-0.671145 1.164,-1.246971 1.71359,-1.899111 0.5496,-0.652137 1.02118,-1.411843 1.12138,-2.258777 0.0653,-0.552053 -0.0344,-1.123209 -0.28577,-1.619022 -0.2514,-0.495811 -0.65385,-0.914072 -1.14101,-1.181841 -0.42627,-0.234296 -0.916,-0.351938 -1.40199,-0.337447 z m 10.17509,10.394199 c -0.97504,-0.0051 -1.96341,0.199056 -2.81068,0.681611 -0.82312,0.468802 -1.48542,1.181886 -2.01951,1.964222 -0.5341,0.782336 -0.9499,1.637882 -1.3746,2.484604 -0.42469,0.84672 -0.86328,1.69269 -1.43712,2.446361 -0.57383,0.753669 -1.29397,1.417061 -2.16111,1.798339 -0.85815,0.377327 -1.82394,0.461798 -2.75693,0.37052 -0.93299,-0.09128 -1.84086,-0.351274 -2.73214,-0.641821 -0.89128,-0.290545 -1.77369,-0.613064 -2.68459,-0.834573 -0.91089,-0.221512 -1.85868,-0.340617 -2.78794,-0.217043 -1.78896,0.237898 -3.32363,1.333318 -4.88394,2.240174 -0.78016,0.453427 -1.59105,0.868926 -2.46032,1.111044 -0.86926,0.242117 -1.80559,0.303919 -2.67167,0.05064 -0.74609,-0.218189 -1.42031,-0.667724 -1.92391,-1.259872 -0.46415,-0.545764 -0.78188,-1.210273 -0.93689,-1.909961 -0.2309,1.336072 -0.35244,2.710439 -0.35244,4.114477 0,5.44064 1.80785,10.442864 4.85604,14.444079 0.90798,-0.27594 1.81236,-0.56821 2.73058,-0.80615 1.78211,-0.4618 3.68027,-0.71287 5.45393,-0.21963 1.20221,0.33433 2.2867,0.99396 3.31298,1.70378 1.02627,0.70981 2.01607,1.48003 3.11247,2.07584 1.43771,0.78129 3.04894,1.24898 4.68343,1.3255 1.6345,0.0765 3.29011,-0.24097 4.76612,-0.94723 1.05083,-0.50282 1.99887,-1.1929 2.99723,-1.79317 0.99837,-0.60028 2.07935,-1.12105 3.23908,-1.23094 1.49244,-0.1414 2.96001,0.4084 4.32067,1.03767 0.55404,0.25623 1.10607,0.52718 1.66501,0.77721 1.43624,-1.52031 2.67325,-3.23065 3.67058,-5.090645 -0.76221,0.150448 -1.51194,0.373798 -2.28565,0.440799 -1.47218,0.127489 -2.92329,-0.332746 -4.33875,-0.757058 -1.41546,-0.424315 -2.8994,-0.821685 -4.35477,-0.565859 -0.86043,0.151249 -1.6684,0.52619 -2.41123,0.985988 -0.74283,0.459796 -1.42817,1.005364 -2.12545,1.531685 -0.69727,0.52633 -1.41256,1.03724 -2.19883,1.418 -0.78627,0.38077 -1.65175,0.62891 -2.52491,0.60049 -0.94404,-0.0307 -1.85617,-0.38338 -2.65927,-0.88057 -0.8031,-0.49719 -1.5083,-1.13586 -2.19108,-1.788521 -0.68278,-0.652664 -1.35025,-1.325047 -2.09755,-1.902727 -0.74729,-0.577681 -1.58367,-1.062715 -2.50114,-1.287262 -0.92793,-0.227107 -1.90197,-0.179599 -2.8484,-0.04961 -0.94643,0.129992 -1.88167,0.341003 -2.83187,0.439767 -0.9502,0.09877 -1.93138,0.08083 -2.83238,-0.236678 -0.45051,-0.158753 -0.87652,-0.392234 -1.23766,-0.704866 -0.36113,-0.312632 -0.65577,-0.705728 -0.83302,-1.149284 -0.28919,-0.723683 -0.24987,-1.559531 0.0486,-2.279446 0.29844,-0.719918 0.84299,-1.324909 1.49396,-1.753383 0.65097,-0.428474 1.40463,-0.686721 2.17351,-0.813903 0.76888,-0.127183 1.5541,-0.126963 2.33113,-0.06718 2.24017,0.172358 4.41246,0.831911 6.6306,1.189593 2.21814,0.357683 4.59248,0.389612 6.59856,-0.622183 1.64599,-0.830175 2.87883,-2.274351 4.15582,-3.603916 0.6385,-0.664782 1.3016,-1.311765 2.04949,-1.850533 0.74789,-0.538766 1.58659,-0.968608 2.48822,-1.160135 0.94236,-0.200181 1.92857,-0.134067 2.86494,0.0925 0.93637,0.226566 1.82801,0.609545 2.68872,1.042313 1.72143,0.865534 3.3609,1.945119 5.21881,2.455664 0.95866,0.263435 1.96606,0.36852 2.95331,0.251148 0.47415,-0.05637 0.94296,-0.166563 1.39216,-0.328663 -0.0102,-3.210255 -0.64966,-6.266635 -1.80144,-9.053711 -1.16001,-0.242615 -2.34473,-0.385172 -3.4892,-0.696081 -1.88189,-0.511247 -3.61387,-1.466861 -5.47098,-2.06189 -0.92855,-0.297514 -1.89352,-0.50441 -2.86856,-0.509529 z" />
    <rect
       style="opacity:0.9994;fill:#666666;fill-opacity:0.813765;fill-rule:evenodd;stroke:none;stroke-width:0.265112;stroke-linejoin:round;stroke-miterlimit:4;stroke-dasharray:none;stroke-dashoffset:47.811;stroke-opacity:1;paint-order:stroke fill markers"
       id="rect971"
       width="15.875"
       height="16.441963"
       x="130.40179"
       y="24.190479"
       ry="7.9375" />
    <rect
       style="opacity:0.9994;fill:#4d4d4d;fill-opacity:1;fill-rule:evenodd;stroke:none;stroke-width:0.265112;stroke-linejoin:round;stroke-miterlimit:4;stroke-dasharray:none;stroke-dashoffset:47.811;stroke-opacity:1;paint-order:stroke fill markers"
       id="rect973"
       width="6.8035712"
       height="6.8035712"
       x="130.40179"
       y="40.632442"
       ry="3.4017856" />
    <rect
       style="opacity:0.9994;fill:#1a1a1a;fill-opacity:0.813765;fill-rule:evenodd;stroke:none;stroke-width:0.269275;stroke-linejoin:round;stroke-miterlimit:4;stroke-dasharray:none;stroke-dashoffset:47.811;stroke-opacity:1;paint-order:stroke fill markers"
       id="rect975"
       width="5.2916665"
       height="5.2916665"
       x="137.20537"
       y="47.436016"
       ry="2.6458333" />
  </g>
</svg>
